  0
SECTION
  2
HEADER
  9
$ANGBASE
  50
0.0
  9
$ANGDIR
  70
1
  9
$MEASUREMENT
  70
1
  0
ENDSEC
  0
SECTION
  2
TABLES
  0
TABLE
  2
LTYPE
  70
4
  0
LTYPE
  5
40F
  2
CONTINUOUS
  70
0
  3
Solid line
  72
65
  73
0
  40
0.0
  0
LTYPE
  5
410
  2
DASHDOT
 70
0
  3
Dash Dot ____ _ ____ _
 72
65
 73
4
 40
2.0
 49
1.25
 49
-0.25
 49
0.25
 49
-0.25
  0
LTYPE
  5
411
  2
DASHED
 70
0
  3
Dashed __ __ __ __ __
 72
65
 73
2
 40
0.75
 49
0.5
 49
-0.25
  0
LTYPE
  5
43B
  2
DOTTED
 70
0
  3
Dotted .  .  .  .
 72
65
 73
2
 40
0.2
 49
0.0
 49
-0.2
  0
ENDTAB
  0
TABLE
  2
STYLE
  70
4
  0
STYLE
  2
KICAD
  70
0
  40
0
  41
1
  42
1
  50
0
  71
0
  3
isocp.shx
  0
STYLE
  2
KICADB
  70
0
  40
0
  41
1
  42
1
  50
0
  71
0
  3
isocp.shx
  0
STYLE
  2
KICADI
  70
0
  40
0
  41
1
  42
1
  50
15
  71
0
  3
isocp.shx
  0
STYLE
  2
KICADBI
  70
0
  40
0
  41
1
  42
1
  50
15
  71
0
  3
isocp.shx
  0
ENDTAB
  0
TABLE
  2
LAYER
  70
1
  0
LAYER
  2
BLACK
  70
0
  62
7
  6
CONTINUOUS
  0
ENDTAB
  0
ENDSEC
  0
SECTION
  2
ENTITIES
0
LINE
8
BLACK
6
CONTINUOUS
10
22.555
20
-8.555
11
22.555
21
-11.795
0
LINE
8
BLACK
6
CONTINUOUS
10
22.555
20
-11.795
11
22.5374
21
-11.8374
0
LINE
8
BLACK
6
CONTINUOUS
10
22.5374
20
-11.8374
11
22.495
21
-11.855
0
LINE
8
BLACK
6
CONTINUOUS
10
22.495
20
-11.855
11
15.055
21
-11.855
0
LINE
8
BLACK
6
CONTINUOUS
10
15.055
20
-11.855
11
15.0126
21
-11.8374
0
LINE
8
BLACK
6
CONTINUOUS
10
15.0126
20
-11.8374
11
14.995
21
-11.795
0
LINE
8
BLACK
6
CONTINUOUS
10
14.995
20
-11.795
11
14.995
21
-8.555
0
LINE
8
BLACK
6
CONTINUOUS
10
14.995
20
-8.555
11
15.0126
21
-8.51257
0
LINE
8
BLACK
6
CONTINUOUS
10
15.0126
20
-8.51257
11
15.055
21
-8.495
0
LINE
8
BLACK
6
CONTINUOUS
10
15.055
20
-8.495
11
17.9304
21
-8.495
0
LINE
8
BLACK
6
CONTINUOUS
10
17.9304
20
-8.495
11
17.9243
21
-8.48988
0
LINE
8
BLACK
6
CONTINUOUS
10
17.9243
20
-8.48988
11
17.9154
21
-8.43936
0
LINE
8
BLACK
6
CONTINUOUS
10
17.9154
20
-8.43936
11
17.9411
21
-8.39493
0
LINE
8
BLACK
6
CONTINUOUS
10
17.9411
20
-8.39493
11
17.9893
21
-8.37738
0
LINE
8
BLACK
6
CONTINUOUS
10
17.9893
20
-8.37738
11
18.4273
21
-8.37738
0
LINE
8
BLACK
6
CONTINUOUS
10
18.4273
20
-8.37738
11
17.9839
21
-7.93398
0
LINE
8
BLACK
6
CONTINUOUS
10
17.9839
20
-7.93398
11
17.9689
21
-7.91265
0
LINE
8
BLACK
6
CONTINUOUS
10
17.9689
20
-7.91265
11
17.9685
21
-7.90818
0
LINE
8
BLACK
6
CONTINUOUS
10
17.9685
20
-7.90818
11
17.9658
21
-7.90467
0
LINE
8
BLACK
6
CONTINUOUS
10
17.9658
20
-7.90467
11
17.9181
21
-7.76181
0
LINE
8
BLACK
6
CONTINUOUS
10
17.9181
20
-7.76181
11
17.9148
21
-7.73963
0
LINE
8
BLACK
6
CONTINUOUS
10
17.9148
20
-7.73963
11
17.9143
21
-7.73809
0
LINE
8
BLACK
6
CONTINUOUS
10
17.9143
20
-7.73809
11
17.9143
21
-7.64286
0
LINE
8
BLACK
6
CONTINUOUS
10
17.9143
20
-7.64286
11
17.9188
21
-7.6172
0
LINE
8
BLACK
6
CONTINUOUS
10
17.9188
20
-7.6172
11
17.9217
21
-7.61377
0
LINE
8
BLACK
6
CONTINUOUS
10
17.9217
20
-7.61377
11
17.9222
21
-7.60932
0
LINE
8
BLACK
6
CONTINUOUS
10
17.9222
20
-7.60932
11
17.9698
21
-7.51408
0
LINE
8
BLACK
6
CONTINUOUS
10
17.9698
20
-7.51408
11
17.9832
21
-7.49607
0
LINE
8
BLACK
6
CONTINUOUS
10
17.9832
20
-7.49607
11
17.9839
21
-7.49459
0
LINE
8
BLACK
6
CONTINUOUS
10
17.9839
20
-7.49459
11
18.0315
21
-7.44697
0
LINE
8
BLACK
6
CONTINUOUS
10
18.0315
20
-7.44697
11
18.0499
21
-7.43411
0
LINE
8
BLACK
6
CONTINUOUS
10
18.0499
20
-7.43411
11
18.051
21
-7.43292
0
LINE
8
BLACK
6
CONTINUOUS
10
18.051
20
-7.43292
11
18.1462
21
-7.3853
0
LINE
8
BLACK
6
CONTINUOUS
10
18.1462
20
-7.3853
11
18.1712
21
-7.37787
0
LINE
8
BLACK
6
CONTINUOUS
10
18.1712
20
-7.37787
11
18.1755
21
-7.37891
0
LINE
8
BLACK
6
CONTINUOUS
10
18.1755
20
-7.37891
11
18.1798
21
-7.37738
0
LINE
8
BLACK
6
CONTINUOUS
10
18.1798
20
-7.37738
11
18.4179
21
-7.37738
0
LINE
8
BLACK
6
CONTINUOUS
10
18.4179
20
-7.37738
11
18.4435
21
-7.3819
0
LINE
8
BLACK
6
CONTINUOUS
10
18.4435
20
-7.3819
11
18.4469
21
-7.38478
0
LINE
8
BLACK
6
CONTINUOUS
10
18.4469
20
-7.38478
11
18.4514
21
-7.3853
0
LINE
8
BLACK
6
CONTINUOUS
10
18.4514
20
-7.3853
11
18.5466
21
-7.43292
0
LINE
8
BLACK
6
CONTINUOUS
10
18.5466
20
-7.43292
11
18.5646
21
-7.44628
0
LINE
8
BLACK
6
CONTINUOUS
10
18.5646
20
-7.44628
11
18.5661
21
-7.44697
0
LINE
8
BLACK
6
CONTINUOUS
10
18.5661
20
-7.44697
11
18.6137
21
-7.49459
0
LINE
8
BLACK
6
CONTINUOUS
10
18.6137
20
-7.49459
11
18.6287
21
-7.51592
0
LINE
8
BLACK
6
CONTINUOUS
10
18.6287
20
-7.51592
11
18.6332
21
-7.56703
0
LINE
8
BLACK
6
CONTINUOUS
10
18.6332
20
-7.56703
11
18.6037
21
-7.60906
0
LINE
8
BLACK
6
CONTINUOUS
10
18.6037
20
-7.60906
11
18.5542
21
-7.62233
0
LINE
8
BLACK
6
CONTINUOUS
10
18.5542
20
-7.62233
11
18.5077
21
-7.60065
0
LINE
8
BLACK
6
CONTINUOUS
10
18.5077
20
-7.60065
11
18.4687
21
-7.56164
0
LINE
8
BLACK
6
CONTINUOUS
10
18.4687
20
-7.56164
11
18.4002
21
-7.52738
0
LINE
8
BLACK
6
CONTINUOUS
10
18.4002
20
-7.52738
11
18.1975
21
-7.52738
0
LINE
8
BLACK
6
CONTINUOUS
10
18.1975
20
-7.52738
11
18.1289
21
-7.56164
0
LINE
8
BLACK
6
CONTINUOUS
10
18.1289
20
-7.56164
11
18.0985
21
-7.59205
0
LINE
8
BLACK
6
CONTINUOUS
10
18.0985
20
-7.59205
11
18.0643
21
-7.66056
0
LINE
8
BLACK
6
CONTINUOUS
10
18.0643
20
-7.66056
11
18.0643
21
-7.72592
0
LINE
8
BLACK
6
CONTINUOUS
10
18.0643
20
-7.72592
11
18.1025
21
-7.84044
0
LINE
8
BLACK
6
CONTINUOUS
10
18.1025
20
-7.84044
11
18.6614
21
-8.39935
0
LINE
8
BLACK
6
CONTINUOUS
10
18.6614
20
-8.39935
11
18.6708
21
-8.41276
0
LINE
8
BLACK
6
CONTINUOUS
10
18.6708
20
-8.41276
11
18.6733
21
-8.41488
0
LINE
8
BLACK
6
CONTINUOUS
10
18.6733
20
-8.41488
11
18.6736
21
-8.41687
0
LINE
8
BLACK
6
CONTINUOUS
10
18.6736
20
-8.41687
11
18.6763
21
-8.42068
0
LINE
8
BLACK
6
CONTINUOUS
10
18.6763
20
-8.42068
11
18.6783
21
-8.44317
0
LINE
8
BLACK
6
CONTINUOUS
10
18.6783
20
-8.44317
11
18.6822
21
-8.4654
0
LINE
8
BLACK
6
CONTINUOUS
10
18.6822
20
-8.4654
11
18.6805
21
-8.46837
0
LINE
8
BLACK
6
CONTINUOUS
10
18.6805
20
-8.46837
11
18.6808
21
-8.47179
0
LINE
8
BLACK
6
CONTINUOUS
10
18.6808
20
-8.47179
11
18.6678
21
-8.49028
0
LINE
8
BLACK
6
CONTINUOUS
10
18.6678
20
-8.49028
11
18.6651
21
-8.495
0
LINE
8
BLACK
6
CONTINUOUS
10
18.6651
20
-8.495
11
19.0228
21
-8.495
0
LINE
8
BLACK
6
CONTINUOUS
10
19.0228
20
-8.495
11
18.9656
21
-8.47591
0
LINE
8
BLACK
6
CONTINUOUS
10
18.9656
20
-8.47591
11
18.9427
21
-8.46351
0
LINE
8
BLACK
6
CONTINUOUS
10
18.9427
20
-8.46351
11
18.9403
21
-8.45969
0
LINE
8
BLACK
6
CONTINUOUS
10
18.9403
20
-8.45969
11
18.9363
21
-8.45779
0
LINE
8
BLACK
6
CONTINUOUS
10
18.9363
20
-8.45779
11
18.8886
21
-8.41017
0
LINE
8
BLACK
6
CONTINUOUS
10
18.8886
20
-8.41017
11
18.8737
21
-8.38884
0
LINE
8
BLACK
6
CONTINUOUS
10
18.8737
20
-8.38884
11
18.8692
21
-8.33773
0
LINE
8
BLACK
6
CONTINUOUS
10
18.8692
20
-8.33773
11
18.8986
21
-8.2957
0
LINE
8
BLACK
6
CONTINUOUS
10
18.8986
20
-8.2957
11
18.9482
21
-8.28243
0
LINE
8
BLACK
6
CONTINUOUS
10
18.9482
20
-8.28243
11
18.9947
21
-8.30411
0
LINE
8
BLACK
6
CONTINUOUS
10
18.9947
20
-8.30411
11
19.0298
21
-8.33921
0
LINE
8
BLACK
6
CONTINUOUS
10
19.0298
20
-8.33921
11
19.1443
21
-8.37738
0
LINE
8
BLACK
6
CONTINUOUS
10
19.1443
20
-8.37738
11
19.2152
21
-8.37738
0
LINE
8
BLACK
6
CONTINUOUS
10
19.2152
20
-8.37738
11
19.3297
21
-8.33921
0
LINE
8
BLACK
6
CONTINUOUS
10
19.3297
20
-8.33921
11
19.4038
21
-8.2651
0
LINE
8
BLACK
6
CONTINUOUS
10
19.4038
20
-8.2651
11
19.4423
21
-8.18811
0
LINE
8
BLACK
6
CONTINUOUS
10
19.4423
20
-8.18811
11
19.4857
21
-8.01457
0
LINE
8
BLACK
6
CONTINUOUS
10
19.4857
20
-8.01457
11
19.4857
21
-7.89019
0
LINE
8
BLACK
6
CONTINUOUS
10
19.4857
20
-7.89019
11
19.4423
21
-7.71665
0
LINE
8
BLACK
6
CONTINUOUS
10
19.4423
20
-7.71665
11
19.4038
21
-7.63966
0
LINE
8
BLACK
6
CONTINUOUS
10
19.4038
20
-7.63966
11
19.3297
21
-7.56555
0
LINE
8
BLACK
6
CONTINUOUS
10
19.3297
20
-7.56555
11
19.2152
21
-7.52738
0
LINE
8
BLACK
6
CONTINUOUS
10
19.2152
20
-7.52738
11
19.1443
21
-7.52738
0
LINE
8
BLACK
6
CONTINUOUS
10
19.1443
20
-7.52738
11
19.0298
21
-7.56555
0
LINE
8
BLACK
6
CONTINUOUS
10
19.0298
20
-7.56555
11
18.9947
21
-7.60065
0
LINE
8
BLACK
6
CONTINUOUS
10
18.9947
20
-7.60065
11
18.9734
21
-7.61559
0
LINE
8
BLACK
6
CONTINUOUS
10
18.9734
20
-7.61559
11
18.9223
21
-7.62006
0
LINE
8
BLACK
6
CONTINUOUS
10
18.9223
20
-7.62006
11
18.8802
21
-7.59064
0
LINE
8
BLACK
6
CONTINUOUS
10
18.8802
20
-7.59064
11
18.867
21
-7.54108
0
LINE
8
BLACK
6
CONTINUOUS
10
18.867
20
-7.54108
11
18.8886
21
-7.49459
0
LINE
8
BLACK
6
CONTINUOUS
10
18.8886
20
-7.49459
11
18.9363
21
-7.44697
0
LINE
8
BLACK
6
CONTINUOUS
10
18.9363
20
-7.44697
11
18.9576
21
-7.43203
0
LINE
8
BLACK
6
CONTINUOUS
10
18.9576
20
-7.43203
11
18.9621
21
-7.43164
0
LINE
8
BLACK
6
CONTINUOUS
10
18.9621
20
-7.43164
11
18.9656
21
-7.42885
0
LINE
8
BLACK
6
CONTINUOUS
10
18.9656
20
-7.42885
11
19.1084
21
-7.38123
0
LINE
8
BLACK
6
CONTINUOUS
10
19.1084
20
-7.38123
11
19.1306
21
-7.37794
0
LINE
8
BLACK
6
CONTINUOUS
10
19.1306
20
-7.37794
11
19.1321
21
-7.37738
0
LINE
8
BLACK
6
CONTINUOUS
10
19.1321
20
-7.37738
11
19.2274
21
-7.37738
0
LINE
8
BLACK
6
CONTINUOUS
10
19.2274
20
-7.37738
11
19.2495
21
-7.38127
0
LINE
8
BLACK
6
CONTINUOUS
10
19.2495
20
-7.38127
11
19.2511
21
-7.38123
0
LINE
8
BLACK
6
CONTINUOUS
10
19.2511
20
-7.38123
11
19.394
21
-7.42885
0
LINE
8
BLACK
6
CONTINUOUS
10
19.394
20
-7.42885
11
19.4169
21
-7.44125
0
LINE
8
BLACK
6
CONTINUOUS
10
19.4169
20
-7.44125
11
19.4192
21
-7.44507
0
LINE
8
BLACK
6
CONTINUOUS
10
19.4192
20
-7.44507
11
19.4233
21
-7.44697
0
LINE
8
BLACK
6
CONTINUOUS
10
19.4233
20
-7.44697
11
19.5185
21
-7.54221
0
LINE
8
BLACK
6
CONTINUOUS
10
19.5185
20
-7.54221
11
19.5314
21
-7.56057
0
LINE
8
BLACK
6
CONTINUOUS
10
19.5314
20
-7.56057
11
19.5326
21
-7.5617
0
LINE
8
BLACK
6
CONTINUOUS
10
19.5326
20
-7.5617
11
19.5802
21
-7.65693
0
LINE
8
BLACK
6
CONTINUOUS
10
19.5802
20
-7.65693
11
19.5839
21
-7.66934
0
LINE
8
BLACK
6
CONTINUOUS
10
19.5839
20
-7.66934
11
19.5859
21
-7.67229
0
LINE
8
BLACK
6
CONTINUOUS
10
19.5859
20
-7.67229
11
19.6335
21
-7.86276
0
LINE
8
BLACK
6
CONTINUOUS
10
19.6335
20
-7.86276
11
19.6345
21
-7.87769
0
LINE
8
BLACK
6
CONTINUOUS
10
19.6345
20
-7.87769
11
19.6357
21
-7.88095
0
LINE
8
BLACK
6
CONTINUOUS
10
19.6357
20
-7.88095
11
19.6357
21
-8.02381
0
LINE
8
BLACK
6
CONTINUOUS
10
19.6357
20
-8.02381
11
19.6331
21
-8.03855
0
LINE
8
BLACK
6
CONTINUOUS
10
19.6331
20
-8.03855
11
19.6335
21
-8.042
0
LINE
8
BLACK
6
CONTINUOUS
10
19.6335
20
-8.042
11
19.5859
21
-8.23247
0
LINE
8
BLACK
6
CONTINUOUS
10
19.5859
20
-8.23247
11
19.5806
21
-8.2443
0
LINE
8
BLACK
6
CONTINUOUS
10
19.5806
20
-8.2443
11
19.5802
21
-8.24783
0
LINE
8
BLACK
6
CONTINUOUS
10
19.5802
20
-8.24783
11
19.5326
21
-8.34306
0
LINE
8
BLACK
6
CONTINUOUS
10
19.5326
20
-8.34306
11
19.5192
21
-8.36107
0
LINE
8
BLACK
6
CONTINUOUS
10
19.5192
20
-8.36107
11
19.5185
21
-8.36256
0
LINE
8
BLACK
6
CONTINUOUS
10
19.5185
20
-8.36256
11
19.4233
21
-8.45779
0
LINE
8
BLACK
6
CONTINUOUS
10
19.4233
20
-8.45779
11
19.4019
21
-8.47273
0
LINE
8
BLACK
6
CONTINUOUS
10
19.4019
20
-8.47273
11
19.3975
21
-8.47312
0
LINE
8
BLACK
6
CONTINUOUS
10
19.3975
20
-8.47312
11
19.394
21
-8.47591
0
LINE
8
BLACK
6
CONTINUOUS
10
19.394
20
-8.47591
11
19.3367
21
-8.495
0
LINE
8
BLACK
6
CONTINUOUS
10
19.3367
20
-8.495
11
22.495
21
-8.495
0
LINE
8
BLACK
6
CONTINUOUS
10
22.495
20
-8.495
11
22.5374
21
-8.51257
0
LINE
8
BLACK
6
CONTINUOUS
10
22.5374
20
-8.51257
11
22.555
21
-8.555
0
LINE
8
BLACK
6
CONTINUOUS
10
15.115
20
-8.615
11
15.115
21
-11.735
0
LINE
8
BLACK
6
CONTINUOUS
10
15.115
20
-11.735
11
22.435
21
-11.735
0
LINE
8
BLACK
6
CONTINUOUS
10
22.435
20
-11.735
11
22.435
21
-8.615
0
LINE
8
BLACK
6
CONTINUOUS
10
22.435
20
-8.615
11
15.115
21
-8.615
0
LINE
8
BLACK
6
CONTINUOUS
10
2.82757
20
-7.81243
11
2.81
21
-7.77
0
LINE
8
BLACK
6
CONTINUOUS
10
2.81
20
-7.77
11
2.81
21
-5.17
0
LINE
8
BLACK
6
CONTINUOUS
10
2.81
20
-5.17
11
2.82757
21
-5.12757
0
LINE
8
BLACK
6
CONTINUOUS
10
2.82757
20
-5.12757
11
2.87
21
-5.11
0
LINE
8
BLACK
6
CONTINUOUS
10
2.87
20
-5.11
11
5.53
21
-5.11
0
LINE
8
BLACK
6
CONTINUOUS
10
5.53
20
-5.11
11
5.57243
21
-5.12757
0
LINE
8
BLACK
6
CONTINUOUS
10
5.57243
20
-5.12757
11
5.59
21
-5.17
0
LINE
8
BLACK
6
CONTINUOUS
10
5.59
20
-5.17
11
5.59
21
-7.77
0
LINE
8
BLACK
6
CONTINUOUS
10
5.59
20
-7.77
11
5.57243
21
-7.81243
0
LINE
8
BLACK
6
CONTINUOUS
10
5.57243
20
-7.81243
11
5.53
21
-7.83
0
LINE
8
BLACK
6
CONTINUOUS
10
5.53
20
-7.83
11
2.87
21
-7.83
0
LINE
8
BLACK
6
CONTINUOUS
10
2.87
20
-7.83
11
2.82757
21
-7.81243
0
LINE
8
BLACK
6
CONTINUOUS
10
2.93
20
-5.23
11
2.93
21
-7.71
0
LINE
8
BLACK
6
CONTINUOUS
10
2.93
20
-7.71
11
5.47
21
-7.71
0
LINE
8
BLACK
6
CONTINUOUS
10
5.47
20
-7.71
11
5.47
21
-5.23
0
LINE
8
BLACK
6
CONTINUOUS
10
5.47
20
-5.23
11
2.93
21
-5.23
0
LINE
8
BLACK
6
CONTINUOUS
10
6.54293
20
-4.79508
11
6.6042
21
-4.4784
0
LINE
8
BLACK
6
CONTINUOUS
10
6.6042
20
-4.4784
11
6.70307
21
-4.17137
0
LINE
8
BLACK
6
CONTINUOUS
10
6.70307
20
-4.17137
11
6.83811
21
-3.87845
0
LINE
8
BLACK
6
CONTINUOUS
10
6.83811
20
-3.87845
11
7.00736
21
-3.60387
0
LINE
8
BLACK
6
CONTINUOUS
10
7.00736
20
-3.60387
11
7.20837
21
-3.35162
0
LINE
8
BLACK
6
CONTINUOUS
10
7.20837
20
-3.35162
11
7.43823
21
-3.12534
0
LINE
8
BLACK
6
CONTINUOUS
10
7.43823
20
-3.12534
11
7.69362
21
-2.92831
0
LINE
8
BLACK
6
CONTINUOUS
10
7.69362
20
-2.92831
11
7.97082
21
-2.76339
0
LINE
8
BLACK
6
CONTINUOUS
10
7.97082
20
-2.76339
11
8.26583
21
-2.63297
0
LINE
8
BLACK
6
CONTINUOUS
10
8.26583
20
-2.63297
11
8.57437
21
-2.53894
0
LINE
8
BLACK
6
CONTINUOUS
10
8.57437
20
-2.53894
11
8.89197
21
-2.48265
0
LINE
8
BLACK
6
CONTINUOUS
10
8.89197
20
-2.48265
11
9.21403
21
-2.46492
0
LINE
8
BLACK
6
CONTINUOUS
10
9.21403
20
-2.46492
11
9.53589
21
-2.48602
0
LINE
8
BLACK
6
CONTINUOUS
10
9.53589
20
-2.48602
11
9.85289
21
-2.54563
0
LINE
8
BLACK
6
CONTINUOUS
10
9.85289
20
-2.54563
11
10.1604
21
-2.64289
0
LINE
8
BLACK
6
CONTINUOUS
10
10.1604
20
-2.64289
11
10.4541
21
-2.77639
0
LINE
8
BLACK
6
CONTINUOUS
10
10.4541
20
-2.77639
11
10.7295
21
-2.94421
0
LINE
8
BLACK
6
CONTINUOUS
10
10.7295
20
-2.94421
11
10.9828
21
-3.1439
0
LINE
8
BLACK
6
CONTINUOUS
10
10.9828
20
-3.1439
11
11.2103
21
-3.37257
0
LINE
8
BLACK
6
CONTINUOUS
10
11.2103
20
-3.37257
11
11.4087
21
-3.62692
0
LINE
8
BLACK
6
CONTINUOUS
10
11.4087
20
-3.62692
11
11.575
21
-3.90325
0
LINE
8
BLACK
6
CONTINUOUS
10
11.575
20
-3.90325
11
11.707
21
-4.19757
0
LINE
8
BLACK
6
CONTINUOUS
10
11.707
20
-4.19757
11
11.8026
21
-4.50562
0
LINE
8
BLACK
6
CONTINUOUS
10
11.8026
20
-4.50562
11
11.8606
21
-4.82292
0
LINE
8
BLACK
6
CONTINUOUS
10
11.8606
20
-4.82292
11
11.88
21
-5.14489
0
LINE
8
BLACK
6
CONTINUOUS
10
11.88
20
-5.14489
11
11.8794
21
-5.20101
0
LINE
8
BLACK
6
CONTINUOUS
10
11.8794
20
-5.20101
11
11.8533
21
-5.5225
0
LINE
8
BLACK
6
CONTINUOUS
10
11.8533
20
-5.5225
11
11.7887
21
-5.83852
0
LINE
8
BLACK
6
CONTINUOUS
10
11.7887
20
-5.83852
11
11.6866
21
-6.14449
0
LINE
8
BLACK
6
CONTINUOUS
10
11.6866
20
-6.14449
11
11.5485
21
-6.43599
0
LINE
8
BLACK
6
CONTINUOUS
10
11.5485
20
-6.43599
11
11.3764
21
-6.70878
0
LINE
8
BLACK
6
CONTINUOUS
10
11.3764
20
-6.70878
11
11.1727
21
-6.95891
0
LINE
8
BLACK
6
CONTINUOUS
10
11.1727
20
-6.95891
11
10.9405
21
-7.18277
0
LINE
8
BLACK
6
CONTINUOUS
10
10.9405
20
-7.18277
11
10.6831
21
-7.37712
0
LINE
8
BLACK
6
CONTINUOUS
10
10.6831
20
-7.37712
11
10.4042
21
-7.53912
0
LINE
8
BLACK
6
CONTINUOUS
10
10.4042
20
-7.53912
11
10.1078
21
-7.66645
0
LINE
8
BLACK
6
CONTINUOUS
10
10.1078
20
-7.66645
11
9.79831
21
-7.75725
0
LINE
8
BLACK
6
CONTINUOUS
10
9.79831
20
-7.75725
11
9.48014
21
-7.81021
0
LINE
8
BLACK
6
CONTINUOUS
10
9.48014
20
-7.81021
11
9.1579
21
-7.82456
0
LINE
8
BLACK
6
CONTINUOUS
10
9.1579
20
-7.82456
11
8.83628
21
-7.80009
0
LINE
8
BLACK
6
CONTINUOUS
10
8.83628
20
-7.80009
11
8.51993
21
-7.73717
0
LINE
8
BLACK
6
CONTINUOUS
10
8.51993
20
-7.73717
11
8.21343
21
-7.63669
0
LINE
8
BLACK
6
CONTINUOUS
10
8.21343
20
-7.63669
11
7.92121
21
-7.50012
0
LINE
8
BLACK
6
CONTINUOUS
10
7.92121
20
-7.50012
11
7.64753
21
-7.32943
0
LINE
8
BLACK
6
CONTINUOUS
10
7.64753
20
-7.32943
11
7.39633
21
-7.1271
0
LINE
8
BLACK
6
CONTINUOUS
10
7.39633
20
-7.1271
11
7.17125
21
-6.89605
0
LINE
8
BLACK
6
CONTINUOUS
10
7.17125
20
-6.89605
11
6.97557
21
-6.63964
0
LINE
8
BLACK
6
CONTINUOUS
10
6.97557
20
-6.63964
11
6.8121
21
-6.36158
0
LINE
8
BLACK
6
CONTINUOUS
10
6.8121
20
-6.36158
11
6.68323
21
-6.06589
0
LINE
8
BLACK
6
CONTINUOUS
10
6.68323
20
-6.06589
11
6.59081
21
-5.75687
0
LINE
8
BLACK
6
CONTINUOUS
10
6.59081
20
-5.75687
11
6.53618
21
-5.43898
0
LINE
8
BLACK
6
CONTINUOUS
10
6.53618
20
-5.43898
11
6.52154
21
-5.14489
0
LINE
8
BLACK
6
CONTINUOUS
10
6.52154
20
-5.14489
11
6.52015
21
-5.11682
0
LINE
8
BLACK
6
CONTINUOUS
10
6.52015
20
-5.11682
11
6.54293
21
-4.79508
0
LINE
8
BLACK
6
CONTINUOUS
10
8.21171
20
-5.40489
11
8.22
21
-5.42489
0
LINE
8
BLACK
6
CONTINUOUS
10
8.22
20
-5.42489
11
8.21171
21
-5.44489
0
LINE
8
BLACK
6
CONTINUOUS
10
8.21171
20
-5.44489
11
8.22
21
-5.46489
0
LINE
8
BLACK
6
CONTINUOUS
10
8.22
20
-5.46489
11
8.21171
21
-5.48489
0
LINE
8
BLACK
6
CONTINUOUS
10
8.21171
20
-5.48489
11
8.22
21
-5.50489
0
LINE
8
BLACK
6
CONTINUOUS
10
8.22
20
-5.50489
11
8.21171
21
-5.52489
0
LINE
8
BLACK
6
CONTINUOUS
10
8.21171
20
-5.52489
11
8.22
21
-5.54489
0
LINE
8
BLACK
6
CONTINUOUS
10
8.22
20
-5.54489
11
8.21171
21
-5.56489
0
LINE
8
BLACK
6
CONTINUOUS
10
8.21171
20
-5.56489
11
8.22
21
-5.58489
0
LINE
8
BLACK
6
CONTINUOUS
10
8.22
20
-5.58489
11
8.21171
21
-5.60489
0
LINE
8
BLACK
6
CONTINUOUS
10
8.21171
20
-5.60489
11
8.22
21
-5.62489
0
LINE
8
BLACK
6
CONTINUOUS
10
8.22
20
-5.62489
11
8.21171
21
-5.64489
0
LINE
8
BLACK
6
CONTINUOUS
10
8.21171
20
-5.64489
11
8.22
21
-5.66489
0
LINE
8
BLACK
6
CONTINUOUS
10
8.22
20
-5.66489
11
8.21171
21
-5.68489
0
LINE
8
BLACK
6
CONTINUOUS
10
8.21171
20
-5.68489
11
8.22
21
-5.70489
0
LINE
8
BLACK
6
CONTINUOUS
10
8.22
20
-5.70489
11
8.21171
21
-5.72489
0
LINE
8
BLACK
6
CONTINUOUS
10
8.21171
20
-5.72489
11
8.22
21
-5.74489
0
LINE
8
BLACK
6
CONTINUOUS
10
8.22
20
-5.74489
11
8.21171
21
-5.76489
0
LINE
8
BLACK
6
CONTINUOUS
10
8.21171
20
-5.76489
11
8.22
21
-5.78489
0
LINE
8
BLACK
6
CONTINUOUS
10
8.22
20
-5.78489
11
8.21171
21
-5.80489
0
LINE
8
BLACK
6
CONTINUOUS
10
8.21171
20
-5.80489
11
8.22
21
-5.82489
0
LINE
8
BLACK
6
CONTINUOUS
10
8.22
20
-5.82489
11
8.21151
21
-5.84539
0
LINE
8
BLACK
6
CONTINUOUS
10
8.21151
20
-5.84539
11
8.22
21
-5.86589
0
LINE
8
BLACK
6
CONTINUOUS
10
8.22
20
-5.86589
11
8.21171
21
-5.88589
0
LINE
8
BLACK
6
CONTINUOUS
10
8.21171
20
-5.88589
11
8.22
21
-5.90589
0
LINE
8
BLACK
6
CONTINUOUS
10
8.22
20
-5.90589
11
8.21171
21
-5.92589
0
LINE
8
BLACK
6
CONTINUOUS
10
8.21171
20
-5.92589
11
8.22
21
-5.94589
0
LINE
8
BLACK
6
CONTINUOUS
10
8.22
20
-5.94589
11
8.21171
21
-5.96589
0
LINE
8
BLACK
6
CONTINUOUS
10
8.21171
20
-5.96589
11
8.22
21
-5.98589
0
LINE
8
BLACK
6
CONTINUOUS
10
8.22
20
-5.98589
11
8.21171
21
-6.00589
0
LINE
8
BLACK
6
CONTINUOUS
10
8.21171
20
-6.00589
11
8.22
21
-6.02589
0
LINE
8
BLACK
6
CONTINUOUS
10
8.22
20
-6.02589
11
8.21171
21
-6.04589
0
LINE
8
BLACK
6
CONTINUOUS
10
8.21171
20
-6.04589
11
8.22
21
-6.06589
0
LINE
8
BLACK
6
CONTINUOUS
10
8.22
20
-6.06589
11
8.21171
21
-6.08589
0
LINE
8
BLACK
6
CONTINUOUS
10
8.21171
20
-6.08589
11
8.22
21
-6.10589
0
LINE
8
BLACK
6
CONTINUOUS
10
8.22
20
-6.10589
11
8.21171
21
-6.12589
0
LINE
8
BLACK
6
CONTINUOUS
10
8.21171
20
-6.12589
11
8.22
21
-6.14589
0
LINE
8
BLACK
6
CONTINUOUS
10
8.22
20
-6.14589
11
8.21171
21
-6.16589
0
LINE
8
BLACK
6
CONTINUOUS
10
8.21171
20
-6.16589
11
8.22
21
-6.18589
0
LINE
8
BLACK
6
CONTINUOUS
10
8.22
20
-6.18589
11
8.21171
21
-6.20589
0
LINE
8
BLACK
6
CONTINUOUS
10
8.21171
20
-6.20589
11
8.22
21
-6.22589
0
LINE
8
BLACK
6
CONTINUOUS
10
8.22
20
-6.22589
11
8.21171
21
-6.24589
0
LINE
8
BLACK
6
CONTINUOUS
10
8.21171
20
-6.24589
11
8.22
21
-6.26589
0
LINE
8
BLACK
6
CONTINUOUS
10
8.22
20
-6.26589
11
8.21171
21
-6.28589
0
LINE
8
BLACK
6
CONTINUOUS
10
8.21171
20
-6.28589
11
8.22
21
-6.30589
0
LINE
8
BLACK
6
CONTINUOUS
10
8.22
20
-6.30589
11
8.21171
21
-6.32589
0
LINE
8
BLACK
6
CONTINUOUS
10
8.21171
20
-6.32589
11
8.22
21
-6.34589
0
LINE
8
BLACK
6
CONTINUOUS
10
8.22
20
-6.34589
11
8.21171
21
-6.36589
0
LINE
8
BLACK
6
CONTINUOUS
10
8.21171
20
-6.36589
11
8.22
21
-6.38589
0
LINE
8
BLACK
6
CONTINUOUS
10
8.22
20
-6.38589
11
8.21171
21
-6.40589
0
LINE
8
BLACK
6
CONTINUOUS
10
8.21171
20
-6.40589
11
8.22
21
-6.42589
0
LINE
8
BLACK
6
CONTINUOUS
10
8.22
20
-6.42589
11
8.21171
21
-6.44589
0
LINE
8
BLACK
6
CONTINUOUS
10
8.21171
20
-6.44589
11
8.22
21
-6.46589
0
LINE
8
BLACK
6
CONTINUOUS
10
8.22
20
-6.46589
11
8.21171
21
-6.48589
0
LINE
8
BLACK
6
CONTINUOUS
10
8.21171
20
-6.48589
11
8.22
21
-6.50589
0
LINE
8
BLACK
6
CONTINUOUS
10
8.22
20
-6.50589
11
8.21171
21
-6.52589
0
LINE
8
BLACK
6
CONTINUOUS
10
8.21171
20
-6.52589
11
8.22
21
-6.54589
0
LINE
8
BLACK
6
CONTINUOUS
10
8.22
20
-6.54589
11
8.21171
21
-6.56589
0
LINE
8
BLACK
6
CONTINUOUS
10
8.21171
20
-6.56589
11
8.22
21
-6.58589
0
LINE
8
BLACK
6
CONTINUOUS
10
8.22
20
-6.58589
11
8.21171
21
-6.60589
0
LINE
8
BLACK
6
CONTINUOUS
10
8.21171
20
-6.60589
11
8.22
21
-6.62589
0
LINE
8
BLACK
6
CONTINUOUS
10
8.22
20
-6.62589
11
8.21171
21
-6.64589
0
LINE
8
BLACK
6
CONTINUOUS
10
8.21171
20
-6.64589
11
8.22
21
-6.66589
0
LINE
8
BLACK
6
CONTINUOUS
10
8.22
20
-6.66589
11
8.21171
21
-6.68589
0
LINE
8
BLACK
6
CONTINUOUS
10
8.21171
20
-6.68589
11
8.22
21
-6.70589
0
LINE
8
BLACK
6
CONTINUOUS
10
8.22
20
-6.70589
11
8.21171
21
-6.72589
0
LINE
8
BLACK
6
CONTINUOUS
10
8.21171
20
-6.72589
11
8.22
21
-6.74589
0
LINE
8
BLACK
6
CONTINUOUS
10
8.22
20
-6.74589
11
8.21171
21
-6.76589
0
LINE
8
BLACK
6
CONTINUOUS
10
8.21171
20
-6.76589
11
8.22
21
-6.78589
0
LINE
8
BLACK
6
CONTINUOUS
10
8.22
20
-6.78589
11
8.21171
21
-6.80589
0
LINE
8
BLACK
6
CONTINUOUS
10
8.21171
20
-6.80589
11
8.22
21
-6.82589
0
LINE
8
BLACK
6
CONTINUOUS
10
8.22
20
-6.82589
11
8.21171
21
-6.84589
0
LINE
8
BLACK
6
CONTINUOUS
10
8.21171
20
-6.84589
11
8.22
21
-6.86589
0
LINE
8
BLACK
6
CONTINUOUS
10
8.22
20
-6.86589
11
8.21171
21
-6.88589
0
LINE
8
BLACK
6
CONTINUOUS
10
8.21171
20
-6.88589
11
8.22
21
-6.90589
0
LINE
8
BLACK
6
CONTINUOUS
10
8.22
20
-6.90589
11
8.21171
21
-6.92589
0
LINE
8
BLACK
6
CONTINUOUS
10
8.21171
20
-6.92589
11
8.22
21
-6.94589
0
LINE
8
BLACK
6
CONTINUOUS
10
8.22
20
-6.94589
11
8.21171
21
-6.96589
0
LINE
8
BLACK
6
CONTINUOUS
10
8.21171
20
-6.96589
11
8.22
21
-6.98589
0
LINE
8
BLACK
6
CONTINUOUS
10
8.22
20
-6.98589
11
8.21171
21
-7.00589
0
LINE
8
BLACK
6
CONTINUOUS
10
8.21171
20
-7.00589
11
8.22
21
-7.02589
0
LINE
8
BLACK
6
CONTINUOUS
10
8.22
20
-7.02589
11
8.21171
21
-7.04589
0
LINE
8
BLACK
6
CONTINUOUS
10
8.21171
20
-7.04589
11
8.22
21
-7.06589
0
LINE
8
BLACK
6
CONTINUOUS
10
8.22
20
-7.06589
11
8.21171
21
-7.08589
0
LINE
8
BLACK
6
CONTINUOUS
10
8.21171
20
-7.08589
11
8.22
21
-7.10589
0
LINE
8
BLACK
6
CONTINUOUS
10
8.22
20
-7.10589
11
8.21171
21
-7.12589
0
LINE
8
BLACK
6
CONTINUOUS
10
8.21171
20
-7.12589
11
8.22
21
-7.14589
0
LINE
8
BLACK
6
CONTINUOUS
10
8.22
20
-7.14589
11
8.21171
21
-7.16589
0
LINE
8
BLACK
6
CONTINUOUS
10
8.21171
20
-7.16589
11
8.22
21
-7.18589
0
LINE
8
BLACK
6
CONTINUOUS
10
8.22
20
-7.18589
11
8.21171
21
-7.20589
0
LINE
8
BLACK
6
CONTINUOUS
10
8.21171
20
-7.20589
11
8.22
21
-7.22589
0
LINE
8
BLACK
6
CONTINUOUS
10
8.22
20
-7.22589
11
8.21171
21
-7.24589
0
LINE
8
BLACK
6
CONTINUOUS
10
8.21171
20
-7.24589
11
8.22
21
-7.26589
0
LINE
8
BLACK
6
CONTINUOUS
10
8.22
20
-7.26589
11
8.21171
21
-7.28589
0
LINE
8
BLACK
6
CONTINUOUS
10
8.21171
20
-7.28589
11
8.22
21
-7.30589
0
LINE
8
BLACK
6
CONTINUOUS
10
8.22
20
-7.30589
11
8.21171
21
-7.32589
0
LINE
8
BLACK
6
CONTINUOUS
10
8.21171
20
-7.32589
11
8.22
21
-7.34589
0
LINE
8
BLACK
6
CONTINUOUS
10
8.22
20
-7.34589
11
8.21171
21
-7.36589
0
LINE
8
BLACK
6
CONTINUOUS
10
8.21171
20
-7.36589
11
8.22
21
-7.38589
0
LINE
8
BLACK
6
CONTINUOUS
10
8.22
20
-7.38589
11
8.21171
21
-7.40589
0
LINE
8
BLACK
6
CONTINUOUS
10
8.21171
20
-7.40589
11
10.1883
21
-7.40589
0
LINE
8
BLACK
6
CONTINUOUS
10
10.1883
20
-7.40589
11
10.18
21
-7.38589
0
LINE
8
BLACK
6
CONTINUOUS
10
10.18
20
-7.38589
11
10.1883
21
-7.36589
0
LINE
8
BLACK
6
CONTINUOUS
10
10.1883
20
-7.36589
11
10.18
21
-7.34589
0
LINE
8
BLACK
6
CONTINUOUS
10
10.18
20
-7.34589
11
10.1883
21
-7.32589
0
LINE
8
BLACK
6
CONTINUOUS
10
10.1883
20
-7.32589
11
10.18
21
-7.30589
0
LINE
8
BLACK
6
CONTINUOUS
10
10.18
20
-7.30589
11
10.1883
21
-7.28589
0
LINE
8
BLACK
6
CONTINUOUS
10
10.1883
20
-7.28589
11
10.18
21
-7.26589
0
LINE
8
BLACK
6
CONTINUOUS
10
10.18
20
-7.26589
11
10.1883
21
-7.24589
0
LINE
8
BLACK
6
CONTINUOUS
10
10.1883
20
-7.24589
11
10.18
21
-7.22589
0
LINE
8
BLACK
6
CONTINUOUS
10
10.18
20
-7.22589
11
10.1883
21
-7.20589
0
LINE
8
BLACK
6
CONTINUOUS
10
10.1883
20
-7.20589
11
10.18
21
-7.18589
0
LINE
8
BLACK
6
CONTINUOUS
10
10.18
20
-7.18589
11
10.1883
21
-7.16589
0
LINE
8
BLACK
6
CONTINUOUS
10
10.1883
20
-7.16589
11
10.18
21
-7.14589
0
LINE
8
BLACK
6
CONTINUOUS
10
10.18
20
-7.14589
11
10.1883
21
-7.12589
0
LINE
8
BLACK
6
CONTINUOUS
10
10.1883
20
-7.12589
11
10.18
21
-7.10589
0
LINE
8
BLACK
6
CONTINUOUS
10
10.18
20
-7.10589
11
10.1883
21
-7.08589
0
LINE
8
BLACK
6
CONTINUOUS
10
10.1883
20
-7.08589
11
10.18
21
-7.06589
0
LINE
8
BLACK
6
CONTINUOUS
10
10.18
20
-7.06589
11
10.1883
21
-7.04589
0
LINE
8
BLACK
6
CONTINUOUS
10
10.1883
20
-7.04589
11
10.18
21
-7.02589
0
LINE
8
BLACK
6
CONTINUOUS
10
10.18
20
-7.02589
11
10.1883
21
-7.00589
0
LINE
8
BLACK
6
CONTINUOUS
10
10.1883
20
-7.00589
11
10.18
21
-6.98589
0
LINE
8
BLACK
6
CONTINUOUS
10
10.18
20
-6.98589
11
10.1883
21
-6.96589
0
LINE
8
BLACK
6
CONTINUOUS
10
10.1883
20
-6.96589
11
10.18
21
-6.94589
0
LINE
8
BLACK
6
CONTINUOUS
10
10.18
20
-6.94589
11
10.1883
21
-6.92589
0
LINE
8
BLACK
6
CONTINUOUS
10
10.1883
20
-6.92589
11
10.18
21
-6.90589
0
LINE
8
BLACK
6
CONTINUOUS
10
10.18
20
-6.90589
11
10.1883
21
-6.88589
0
LINE
8
BLACK
6
CONTINUOUS
10
10.1883
20
-6.88589
11
10.18
21
-6.86589
0
LINE
8
BLACK
6
CONTINUOUS
10
10.18
20
-6.86589
11
10.1883
21
-6.84589
0
LINE
8
BLACK
6
CONTINUOUS
10
10.1883
20
-6.84589
11
10.18
21
-6.82589
0
LINE
8
BLACK
6
CONTINUOUS
10
10.18
20
-6.82589
11
10.1883
21
-6.80589
0
LINE
8
BLACK
6
CONTINUOUS
10
10.1883
20
-6.80589
11
10.18
21
-6.78589
0
LINE
8
BLACK
6
CONTINUOUS
10
10.18
20
-6.78589
11
10.1883
21
-6.76589
0
LINE
8
BLACK
6
CONTINUOUS
10
10.1883
20
-6.76589
11
10.18
21
-6.74589
0
LINE
8
BLACK
6
CONTINUOUS
10
10.18
20
-6.74589
11
10.1883
21
-6.72589
0
LINE
8
BLACK
6
CONTINUOUS
10
10.1883
20
-6.72589
11
10.18
21
-6.70589
0
LINE
8
BLACK
6
CONTINUOUS
10
10.18
20
-6.70589
11
10.1883
21
-6.68589
0
LINE
8
BLACK
6
CONTINUOUS
10
10.1883
20
-6.68589
11
10.18
21
-6.66589
0
LINE
8
BLACK
6
CONTINUOUS
10
10.18
20
-6.66589
11
10.1883
21
-6.64589
0
LINE
8
BLACK
6
CONTINUOUS
10
10.1883
20
-6.64589
11
10.18
21
-6.62589
0
LINE
8
BLACK
6
CONTINUOUS
10
10.18
20
-6.62589
11
10.1883
21
-6.60589
0
LINE
8
BLACK
6
CONTINUOUS
10
10.1883
20
-6.60589
11
10.18
21
-6.58589
0
LINE
8
BLACK
6
CONTINUOUS
10
10.18
20
-6.58589
11
10.1883
21
-6.56589
0
LINE
8
BLACK
6
CONTINUOUS
10
10.1883
20
-6.56589
11
10.18
21
-6.54589
0
LINE
8
BLACK
6
CONTINUOUS
10
10.18
20
-6.54589
11
10.1883
21
-6.52589
0
LINE
8
BLACK
6
CONTINUOUS
10
10.1883
20
-6.52589
11
10.18
21
-6.50589
0
LINE
8
BLACK
6
CONTINUOUS
10
10.18
20
-6.50589
11
10.1883
21
-6.48589
0
LINE
8
BLACK
6
CONTINUOUS
10
10.1883
20
-6.48589
11
10.18
21
-6.46589
0
LINE
8
BLACK
6
CONTINUOUS
10
10.18
20
-6.46589
11
10.1883
21
-6.44589
0
LINE
8
BLACK
6
CONTINUOUS
10
10.1883
20
-6.44589
11
10.18
21
-6.42589
0
LINE
8
BLACK
6
CONTINUOUS
10
10.18
20
-6.42589
11
10.1883
21
-6.40589
0
LINE
8
BLACK
6
CONTINUOUS
10
10.1883
20
-6.40589
11
10.18
21
-6.38589
0
LINE
8
BLACK
6
CONTINUOUS
10
10.18
20
-6.38589
11
10.1883
21
-6.36589
0
LINE
8
BLACK
6
CONTINUOUS
10
10.1883
20
-6.36589
11
10.18
21
-6.34589
0
LINE
8
BLACK
6
CONTINUOUS
10
10.18
20
-6.34589
11
10.1883
21
-6.32589
0
LINE
8
BLACK
6
CONTINUOUS
10
10.1883
20
-6.32589
11
10.18
21
-6.30589
0
LINE
8
BLACK
6
CONTINUOUS
10
10.18
20
-6.30589
11
10.1883
21
-6.28589
0
LINE
8
BLACK
6
CONTINUOUS
10
10.1883
20
-6.28589
11
10.18
21
-6.26589
0
LINE
8
BLACK
6
CONTINUOUS
10
10.18
20
-6.26589
11
10.1883
21
-6.24589
0
LINE
8
BLACK
6
CONTINUOUS
10
10.1883
20
-6.24589
11
10.18
21
-6.22589
0
LINE
8
BLACK
6
CONTINUOUS
10
10.18
20
-6.22589
11
10.1883
21
-6.20589
0
LINE
8
BLACK
6
CONTINUOUS
10
10.1883
20
-6.20589
11
10.18
21
-6.18589
0
LINE
8
BLACK
6
CONTINUOUS
10
10.18
20
-6.18589
11
10.1883
21
-6.16589
0
LINE
8
BLACK
6
CONTINUOUS
10
10.1883
20
-6.16589
11
10.18
21
-6.14589
0
LINE
8
BLACK
6
CONTINUOUS
10
10.18
20
-6.14589
11
10.1883
21
-6.12589
0
LINE
8
BLACK
6
CONTINUOUS
10
10.1883
20
-6.12589
11
10.18
21
-6.10589
0
LINE
8
BLACK
6
CONTINUOUS
10
10.18
20
-6.10589
11
10.1883
21
-6.08589
0
LINE
8
BLACK
6
CONTINUOUS
10
10.1883
20
-6.08589
11
10.18
21
-6.06589
0
LINE
8
BLACK
6
CONTINUOUS
10
10.18
20
-6.06589
11
10.1883
21
-6.04589
0
LINE
8
BLACK
6
CONTINUOUS
10
10.1883
20
-6.04589
11
10.18
21
-6.02589
0
LINE
8
BLACK
6
CONTINUOUS
10
10.18
20
-6.02589
11
10.1883
21
-6.00589
0
LINE
8
BLACK
6
CONTINUOUS
10
10.1883
20
-6.00589
11
10.18
21
-5.98589
0
LINE
8
BLACK
6
CONTINUOUS
10
10.18
20
-5.98589
11
10.1883
21
-5.96589
0
LINE
8
BLACK
6
CONTINUOUS
10
10.1883
20
-5.96589
11
10.18
21
-5.94589
0
LINE
8
BLACK
6
CONTINUOUS
10
10.18
20
-5.94589
11
10.1883
21
-5.92589
0
LINE
8
BLACK
6
CONTINUOUS
10
10.1883
20
-5.92589
11
10.18
21
-5.90589
0
LINE
8
BLACK
6
CONTINUOUS
10
10.18
20
-5.90589
11
10.1883
21
-5.88589
0
LINE
8
BLACK
6
CONTINUOUS
10
10.1883
20
-5.88589
11
10.18
21
-5.86589
0
LINE
8
BLACK
6
CONTINUOUS
10
10.18
20
-5.86589
11
10.1885
21
-5.84539
0
LINE
8
BLACK
6
CONTINUOUS
10
10.1885
20
-5.84539
11
10.18
21
-5.82489
0
LINE
8
BLACK
6
CONTINUOUS
10
10.18
20
-5.82489
11
10.1883
21
-5.80489
0
LINE
8
BLACK
6
CONTINUOUS
10
10.1883
20
-5.80489
11
10.18
21
-5.78489
0
LINE
8
BLACK
6
CONTINUOUS
10
10.18
20
-5.78489
11
10.1883
21
-5.76489
0
LINE
8
BLACK
6
CONTINUOUS
10
10.1883
20
-5.76489
11
10.18
21
-5.74489
0
LINE
8
BLACK
6
CONTINUOUS
10
10.18
20
-5.74489
11
10.1883
21
-5.72489
0
LINE
8
BLACK
6
CONTINUOUS
10
10.1883
20
-5.72489
11
10.18
21
-5.70489
0
LINE
8
BLACK
6
CONTINUOUS
10
10.18
20
-5.70489
11
10.1883
21
-5.68489
0
LINE
8
BLACK
6
CONTINUOUS
10
10.1883
20
-5.68489
11
10.18
21
-5.66489
0
LINE
8
BLACK
6
CONTINUOUS
10
10.18
20
-5.66489
11
10.1883
21
-5.64489
0
LINE
8
BLACK
6
CONTINUOUS
10
10.1883
20
-5.64489
11
10.18
21
-5.62489
0
LINE
8
BLACK
6
CONTINUOUS
10
10.18
20
-5.62489
11
10.1883
21
-5.60489
0
LINE
8
BLACK
6
CONTINUOUS
10
10.1883
20
-5.60489
11
10.18
21
-5.58489
0
LINE
8
BLACK
6
CONTINUOUS
10
10.18
20
-5.58489
11
10.1883
21
-5.56489
0
LINE
8
BLACK
6
CONTINUOUS
10
10.1883
20
-5.56489
11
10.18
21
-5.54489
0
LINE
8
BLACK
6
CONTINUOUS
10
10.18
20
-5.54489
11
10.1883
21
-5.52489
0
LINE
8
BLACK
6
CONTINUOUS
10
10.1883
20
-5.52489
11
10.18
21
-5.50489
0
LINE
8
BLACK
6
CONTINUOUS
10
10.18
20
-5.50489
11
10.1883
21
-5.48489
0
LINE
8
BLACK
6
CONTINUOUS
10
10.1883
20
-5.48489
11
10.18
21
-5.46489
0
LINE
8
BLACK
6
CONTINUOUS
10
10.18
20
-5.46489
11
10.1883
21
-5.44489
0
LINE
8
BLACK
6
CONTINUOUS
10
10.1883
20
-5.44489
11
10.18
21
-5.42489
0
LINE
8
BLACK
6
CONTINUOUS
10
10.18
20
-5.42489
11
10.1883
21
-5.40489
0
LINE
8
BLACK
6
CONTINUOUS
10
10.1883
20
-5.40489
11
8.21171
21
-5.40489
0
LINE
8
BLACK
6
CONTINUOUS
10
9.03894
20
-2.58489
11
8.71936
21
-2.62526
0
LINE
8
BLACK
6
CONTINUOUS
10
8.71936
20
-2.62526
11
8.40735
21
-2.70537
0
LINE
8
BLACK
6
CONTINUOUS
10
8.40735
20
-2.70537
11
8.10785
21
-2.82395
0
LINE
8
BLACK
6
CONTINUOUS
10
8.10785
20
-2.82395
11
7.82557
21
-2.97913
0
LINE
8
BLACK
6
CONTINUOUS
10
7.82557
20
-2.97913
11
7.56497
21
-3.16847
0
LINE
8
BLACK
6
CONTINUOUS
10
7.56497
20
-3.16847
11
7.33015
21
-3.38898
0
LINE
8
BLACK
6
CONTINUOUS
10
7.33015
20
-3.38898
11
7.12482
21
-3.63718
0
LINE
8
BLACK
6
CONTINUOUS
10
7.12482
20
-3.63718
11
6.95222
21
-3.90916
0
LINE
8
BLACK
6
CONTINUOUS
10
6.95222
20
-3.90916
11
6.81507
21
-4.20062
0
LINE
8
BLACK
6
CONTINUOUS
10
6.81507
20
-4.20062
11
6.71552
21
-4.50698
0
LINE
8
BLACK
6
CONTINUOUS
10
6.71552
20
-4.50698
11
6.65516
21
-4.8234
0
LINE
8
BLACK
6
CONTINUOUS
10
6.65516
20
-4.8234
11
6.63871
21
-5.08489
0
LINE
8
BLACK
6
CONTINUOUS
10
6.63871
20
-5.08489
11
11.7613
21
-5.08489
0
LINE
8
BLACK
6
CONTINUOUS
10
11.7613
20
-5.08489
11
11.7448
21
-4.8234
0
LINE
8
BLACK
6
CONTINUOUS
10
11.7448
20
-4.8234
11
11.6845
21
-4.50698
0
LINE
8
BLACK
6
CONTINUOUS
10
11.6845
20
-4.50698
11
11.5849
21
-4.20062
0
LINE
8
BLACK
6
CONTINUOUS
10
11.5849
20
-4.20062
11
11.4478
21
-3.90916
0
LINE
8
BLACK
6
CONTINUOUS
10
11.4478
20
-3.90916
11
11.2752
21
-3.63718
0
LINE
8
BLACK
6
CONTINUOUS
10
11.2752
20
-3.63718
11
11.0698
21
-3.38898
0
LINE
8
BLACK
6
CONTINUOUS
10
11.0698
20
-3.38898
11
10.835
21
-3.16847
0
LINE
8
BLACK
6
CONTINUOUS
10
10.835
20
-3.16847
11
10.5744
21
-2.97913
0
LINE
8
BLACK
6
CONTINUOUS
10
10.5744
20
-2.97913
11
10.2921
21
-2.82395
0
LINE
8
BLACK
6
CONTINUOUS
10
10.2921
20
-2.82395
11
9.99265
21
-2.70537
0
LINE
8
BLACK
6
CONTINUOUS
10
9.99265
20
-2.70537
11
9.68065
21
-2.62526
0
LINE
8
BLACK
6
CONTINUOUS
10
9.68065
20
-2.62526
11
9.36106
21
-2.58489
0
LINE
8
BLACK
6
CONTINUOUS
10
9.36106
20
-2.58489
11
9.03894
21
-2.58489
0
LINE
8
BLACK
6
CONTINUOUS
10
5.57243
20
-2.52757
11
5.59
21
-2.57
0
LINE
8
BLACK
6
CONTINUOUS
10
5.59
20
-2.57
11
5.59
21
-3.9
0
LINE
8
BLACK
6
CONTINUOUS
10
5.59
20
-3.9
11
5.57243
21
-3.94243
0
LINE
8
BLACK
6
CONTINUOUS
10
5.57243
20
-3.94243
11
5.53
21
-3.96
0
LINE
8
BLACK
6
CONTINUOUS
10
5.53
20
-3.96
11
5.48757
21
-3.94243
0
LINE
8
BLACK
6
CONTINUOUS
10
5.48757
20
-3.94243
11
5.47
21
-3.9
0
LINE
8
BLACK
6
CONTINUOUS
10
5.47
20
-3.9
11
5.47
21
-2.63
0
LINE
8
BLACK
6
CONTINUOUS
10
5.47
20
-2.63
11
4.2
21
-2.63
0
LINE
8
BLACK
6
CONTINUOUS
10
4.2
20
-2.63
11
4.15757
21
-2.61243
0
LINE
8
BLACK
6
CONTINUOUS
10
4.15757
20
-2.61243
11
4.14
21
-2.57
0
LINE
8
BLACK
6
CONTINUOUS
10
4.14
20
-2.57
11
4.15757
21
-2.52757
0
LINE
8
BLACK
6
CONTINUOUS
10
4.15757
20
-2.52757
11
4.2
21
-2.51
0
LINE
8
BLACK
6
CONTINUOUS
10
4.2
20
-2.51
11
5.53
21
-2.51
0
LINE
8
BLACK
6
CONTINUOUS
10
5.53
20
-2.51
11
5.57243
21
-2.52757
0
LINE
8
BLACK
6
CONTINUOUS
10
7.76743
20
-2.29769
11
7.785
21
-2.34011
0
LINE
8
BLACK
6
CONTINUOUS
10
7.785
20
-2.34011
11
7.785
21
-2.53011
0
LINE
8
BLACK
6
CONTINUOUS
10
7.785
20
-2.53011
11
7.975
21
-2.53011
0
LINE
8
BLACK
6
CONTINUOUS
10
7.975
20
-2.53011
11
8.01743
21
-2.54769
0
LINE
8
BLACK
6
CONTINUOUS
10
8.01743
20
-2.54769
11
8.035
21
-2.59011
0
LINE
8
BLACK
6
CONTINUOUS
10
8.035
20
-2.59011
11
8.01743
21
-2.63254
0
LINE
8
BLACK
6
CONTINUOUS
10
8.01743
20
-2.63254
11
7.975
21
-2.65011
0
LINE
8
BLACK
6
CONTINUOUS
10
7.975
20
-2.65011
11
7.785
21
-2.65011
0
LINE
8
BLACK
6
CONTINUOUS
10
7.785
20
-2.65011
11
7.785
21
-2.84011
0
LINE
8
BLACK
6
CONTINUOUS
10
7.785
20
-2.84011
11
7.76743
21
-2.88254
0
LINE
8
BLACK
6
CONTINUOUS
10
7.76743
20
-2.88254
11
7.725
21
-2.90011
0
LINE
8
BLACK
6
CONTINUOUS
10
7.725
20
-2.90011
11
7.68257
21
-2.88254
0
LINE
8
BLACK
6
CONTINUOUS
10
7.68257
20
-2.88254
11
7.665
21
-2.84011
0
LINE
8
BLACK
6
CONTINUOUS
10
7.665
20
-2.84011
11
7.665
21
-2.65011
0
LINE
8
BLACK
6
CONTINUOUS
10
7.665
20
-2.65011
11
7.475
21
-2.65011
0
LINE
8
BLACK
6
CONTINUOUS
10
7.475
20
-2.65011
11
7.43257
21
-2.63254
0
LINE
8
BLACK
6
CONTINUOUS
10
7.43257
20
-2.63254
11
7.415
21
-2.59011
0
LINE
8
BLACK
6
CONTINUOUS
10
7.415
20
-2.59011
11
7.43257
21
-2.54769
0
LINE
8
BLACK
6
CONTINUOUS
10
7.43257
20
-2.54769
11
7.475
21
-2.53011
0
LINE
8
BLACK
6
CONTINUOUS
10
7.475
20
-2.53011
11
7.665
21
-2.53011
0
LINE
8
BLACK
6
CONTINUOUS
10
7.665
20
-2.53011
11
7.665
21
-2.34011
0
LINE
8
BLACK
6
CONTINUOUS
10
7.665
20
-2.34011
11
7.68257
21
-2.29769
0
LINE
8
BLACK
6
CONTINUOUS
10
7.68257
20
-2.29769
11
7.725
21
-2.28011
0
LINE
8
BLACK
6
CONTINUOUS
10
7.725
20
-2.28011
11
7.76743
21
-2.29769
0
LINE
8
BLACK
6
CONTINUOUS
10
4.59079
20
-0.974171
11
4.60833
21
-1.02238
0
LINE
8
BLACK
6
CONTINUOUS
10
4.60833
20
-1.02238
11
4.60833
21
-1.7245
0
LINE
8
BLACK
6
CONTINUOUS
10
4.60833
20
-1.7245
11
4.6465
21
-1.83901
0
LINE
8
BLACK
6
CONTINUOUS
10
4.6465
20
-1.83901
11
4.7167
21
-1.90921
0
LINE
8
BLACK
6
CONTINUOUS
10
4.7167
20
-1.90921
11
4.83122
21
-1.94738
0
LINE
8
BLACK
6
CONTINUOUS
10
4.83122
20
-1.94738
11
4.91428
21
-1.94738
0
LINE
8
BLACK
6
CONTINUOUS
10
4.91428
20
-1.94738
11
4.93994
21
-1.9519
0
LINE
8
BLACK
6
CONTINUOUS
10
4.93994
20
-1.9519
11
4.97924
21
-1.98488
0
LINE
8
BLACK
6
CONTINUOUS
10
4.97924
20
-1.98488
11
4.98815
21
-2.0354
0
LINE
8
BLACK
6
CONTINUOUS
10
4.98815
20
-2.0354
11
4.96249
21
-2.07983
0
LINE
8
BLACK
6
CONTINUOUS
10
4.96249
20
-2.07983
11
4.91428
21
-2.09738
0
LINE
8
BLACK
6
CONTINUOUS
10
4.91428
20
-2.09738
11
4.81905
21
-2.09738
0
LINE
8
BLACK
6
CONTINUOUS
10
4.81905
20
-2.09738
11
4.79696
21
-2.09349
0
LINE
8
BLACK
6
CONTINUOUS
10
4.79696
20
-2.09349
11
4.79533
21
-2.09353
0
LINE
8
BLACK
6
CONTINUOUS
10
4.79533
20
-2.09353
11
4.65247
21
-2.04591
0
LINE
8
BLACK
6
CONTINUOUS
10
4.65247
20
-2.04591
11
4.62957
21
-2.03351
0
LINE
8
BLACK
6
CONTINUOUS
10
4.62957
20
-2.03351
11
4.62722
21
-2.02969
0
LINE
8
BLACK
6
CONTINUOUS
10
4.62722
20
-2.02969
11
4.62316
21
-2.02779
0
LINE
8
BLACK
6
CONTINUOUS
10
4.62316
20
-2.02779
11
4.52792
21
-1.93256
0
LINE
8
BLACK
6
CONTINUOUS
10
4.52792
20
-1.93256
11
4.51298
21
-1.91122
0
LINE
8
BLACK
6
CONTINUOUS
10
4.51298
20
-1.91122
11
4.51259
21
-1.90675
0
LINE
8
BLACK
6
CONTINUOUS
10
4.51259
20
-1.90675
11
4.5098
21
-1.90324
0
LINE
8
BLACK
6
CONTINUOUS
10
4.5098
20
-1.90324
11
4.46218
21
-1.76038
0
LINE
8
BLACK
6
CONTINUOUS
10
4.46218
20
-1.76038
11
4.45889
21
-1.73821
0
LINE
8
BLACK
6
CONTINUOUS
10
4.45889
20
-1.73821
11
4.45833
21
-1.73667
0
LINE
8
BLACK
6
CONTINUOUS
10
4.45833
20
-1.73667
11
4.45833
21
-1.02238
0
LINE
8
BLACK
6
CONTINUOUS
10
4.45833
20
-1.02238
11
4.46286
21
-0.996728
0
LINE
8
BLACK
6
CONTINUOUS
10
4.46286
20
-0.996728
11
4.49583
21
-0.957428
0
LINE
8
BLACK
6
CONTINUOUS
10
4.49583
20
-0.957428
11
4.54636
21
-0.948519
0
LINE
8
BLACK
6
CONTINUOUS
10
4.54636
20
-0.948519
11
4.59079
21
-0.974171
0
LINE
8
BLACK
6
CONTINUOUS
10
3.83581
20
-0.950676
11
3.84011
21
-0.950399
0
LINE
8
BLACK
6
CONTINUOUS
10
3.84011
20
-0.950399
11
3.85764
21
-0.963284
0
LINE
8
BLACK
6
CONTINUOUS
10
3.85764
20
-0.963284
11
3.8765
21
-0.974171
0
LINE
8
BLACK
6
CONTINUOUS
10
3.8765
20
-0.974171
11
3.87797
21
-0.978224
0
LINE
8
BLACK
6
CONTINUOUS
10
3.87797
20
-0.978224
11
3.88145
21
-0.980778
0
LINE
8
BLACK
6
CONTINUOUS
10
3.88145
20
-0.980778
11
3.97257
21
-1.11746
0
LINE
8
BLACK
6
CONTINUOUS
10
3.97257
20
-1.11746
11
4.05395
21
-1.19884
0
LINE
8
BLACK
6
CONTINUOUS
10
4.05395
20
-1.19884
11
4.1383
21
-1.24101
0
LINE
8
BLACK
6
CONTINUOUS
10
4.1383
20
-1.24101
11
4.15922
21
-1.25653
0
LINE
8
BLACK
6
CONTINUOUS
10
4.15922
20
-1.25653
11
4.17963
21
-1.3036
0
LINE
8
BLACK
6
CONTINUOUS
10
4.17963
20
-1.3036
11
4.165
21
-1.35278
0
LINE
8
BLACK
6
CONTINUOUS
10
4.165
20
-1.35278
11
4.12219
21
-1.38104
0
LINE
8
BLACK
6
CONTINUOUS
10
4.12219
20
-1.38104
11
4.07122
21
-1.37518
0
LINE
8
BLACK
6
CONTINUOUS
10
4.07122
20
-1.37518
11
3.97598
21
-1.32756
0
LINE
8
BLACK
6
CONTINUOUS
10
3.97598
20
-1.32756
11
3.95797
21
-1.3142
0
LINE
8
BLACK
6
CONTINUOUS
10
3.95797
20
-1.3142
11
3.95649
21
-1.31351
0
LINE
8
BLACK
6
CONTINUOUS
10
3.95649
20
-1.31351
11
3.89405
21
-1.25107
0
LINE
8
BLACK
6
CONTINUOUS
10
3.89405
20
-1.25107
11
3.89405
21
-1.94738
0
LINE
8
BLACK
6
CONTINUOUS
10
3.89405
20
-1.94738
11
4.10476
21
-1.94738
0
LINE
8
BLACK
6
CONTINUOUS
10
4.10476
20
-1.94738
11
4.13041
21
-1.9519
0
LINE
8
BLACK
6
CONTINUOUS
10
4.13041
20
-1.9519
11
4.16971
21
-1.98488
0
LINE
8
BLACK
6
CONTINUOUS
10
4.16971
20
-1.98488
11
4.17862
21
-2.0354
0
LINE
8
BLACK
6
CONTINUOUS
10
4.17862
20
-2.0354
11
4.15297
21
-2.07983
0
LINE
8
BLACK
6
CONTINUOUS
10
4.15297
20
-2.07983
11
4.10476
21
-2.09738
0
LINE
8
BLACK
6
CONTINUOUS
10
4.10476
20
-2.09738
11
3.53333
21
-2.09738
0
LINE
8
BLACK
6
CONTINUOUS
10
3.53333
20
-2.09738
11
3.50768
21
-2.09286
0
LINE
8
BLACK
6
CONTINUOUS
10
3.50768
20
-2.09286
11
3.46838
21
-2.05988
0
LINE
8
BLACK
6
CONTINUOUS
10
3.46838
20
-2.05988
11
3.45947
21
-2.00936
0
LINE
8
BLACK
6
CONTINUOUS
10
3.45947
20
-2.00936
11
3.48512
21
-1.96493
0
LINE
8
BLACK
6
CONTINUOUS
10
3.48512
20
-1.96493
11
3.53333
21
-1.94738
0
LINE
8
BLACK
6
CONTINUOUS
10
3.53333
20
-1.94738
11
3.74405
21
-1.94738
0
LINE
8
BLACK
6
CONTINUOUS
10
3.74405
20
-1.94738
11
3.74405
21
-1.02238
0
LINE
8
BLACK
6
CONTINUOUS
10
3.74405
20
-1.02238
11
3.74857
21
-0.996728
0
LINE
8
BLACK
6
CONTINUOUS
10
3.74857
20
-0.996728
11
3.75134
21
-0.993425
0
LINE
8
BLACK
6
CONTINUOUS
10
3.75134
20
-0.993425
11
3.75182
21
-0.989138
0
LINE
8
BLACK
6
CONTINUOUS
10
3.75182
20
-0.989138
11
3.76756
21
-0.974101
0
LINE
8
BLACK
6
CONTINUOUS
10
3.76756
20
-0.974101
11
3.78155
21
-0.957428
0
LINE
8
BLACK
6
CONTINUOUS
10
3.78155
20
-0.957428
11
3.78579
21
-0.956679
0
LINE
8
BLACK
6
CONTINUOUS
10
3.78579
20
-0.956679
11
3.78891
21
-0.953699
0
LINE
8
BLACK
6
CONTINUOUS
10
3.78891
20
-0.953699
11
3.81063
21
-0.952299
0
LINE
8
BLACK
6
CONTINUOUS
10
3.81063
20
-0.952299
11
3.83207
21
-0.948519
0
LINE
8
BLACK
6
CONTINUOUS
10
3.83207
20
-0.948519
11
3.83581
21
-0.950676
0
LINE
8
BLACK
6
CONTINUOUS
10
8.71676
20
-0.880676
11
8.72106
21
-0.880399
0
LINE
8
BLACK
6
CONTINUOUS
10
8.72106
20
-0.880399
11
8.7386
21
-0.893284
0
LINE
8
BLACK
6
CONTINUOUS
10
8.7386
20
-0.893284
11
8.75745
21
-0.904171
0
LINE
8
BLACK
6
CONTINUOUS
10
8.75745
20
-0.904171
11
8.75893
21
-0.908224
0
LINE
8
BLACK
6
CONTINUOUS
10
8.75893
20
-0.908224
11
8.7624
21
-0.910778
0
LINE
8
BLACK
6
CONTINUOUS
10
8.7624
20
-0.910778
11
8.85352
21
-1.04746
0
LINE
8
BLACK
6
CONTINUOUS
10
8.85352
20
-1.04746
11
8.9349
21
-1.12884
0
LINE
8
BLACK
6
CONTINUOUS
10
8.9349
20
-1.12884
11
9.01925
21
-1.17101
0
LINE
8
BLACK
6
CONTINUOUS
10
9.01925
20
-1.17101
11
9.04018
21
-1.18653
0
LINE
8
BLACK
6
CONTINUOUS
10
9.04018
20
-1.18653
11
9.06058
21
-1.2336
0
LINE
8
BLACK
6
CONTINUOUS
10
9.06058
20
-1.2336
11
9.04595
21
-1.28278
0
LINE
8
BLACK
6
CONTINUOUS
10
9.04595
20
-1.28278
11
9.00314
21
-1.31104
0
LINE
8
BLACK
6
CONTINUOUS
10
9.00314
20
-1.31104
11
8.95217
21
-1.30518
0
LINE
8
BLACK
6
CONTINUOUS
10
8.95217
20
-1.30518
11
8.85694
21
-1.25756
0
LINE
8
BLACK
6
CONTINUOUS
10
8.85694
20
-1.25756
11
8.83892
21
-1.2442
0
LINE
8
BLACK
6
CONTINUOUS
10
8.83892
20
-1.2442
11
8.83744
21
-1.24351
0
LINE
8
BLACK
6
CONTINUOUS
10
8.83744
20
-1.24351
11
8.775
21
-1.18107
0
LINE
8
BLACK
6
CONTINUOUS
10
8.775
20
-1.18107
11
8.775
21
-1.87738
0
LINE
8
BLACK
6
CONTINUOUS
10
8.775
20
-1.87738
11
8.98571
21
-1.87738
0
LINE
8
BLACK
6
CONTINUOUS
10
8.98571
20
-1.87738
11
9.01137
21
-1.8819
0
LINE
8
BLACK
6
CONTINUOUS
10
9.01137
20
-1.8819
11
9.05067
21
-1.91488
0
LINE
8
BLACK
6
CONTINUOUS
10
9.05067
20
-1.91488
11
9.05957
21
-1.9654
0
LINE
8
BLACK
6
CONTINUOUS
10
9.05957
20
-1.9654
11
9.03392
21
-2.00983
0
LINE
8
BLACK
6
CONTINUOUS
10
9.03392
20
-2.00983
11
8.98571
21
-2.02738
0
LINE
8
BLACK
6
CONTINUOUS
10
8.98571
20
-2.02738
11
8.41428
21
-2.02738
0
LINE
8
BLACK
6
CONTINUOUS
10
8.41428
20
-2.02738
11
8.38863
21
-2.02286
0
LINE
8
BLACK
6
CONTINUOUS
10
8.38863
20
-2.02286
11
8.34933
21
-1.98988
0
LINE
8
BLACK
6
CONTINUOUS
10
8.34933
20
-1.98988
11
8.34042
21
-1.93936
0
LINE
8
BLACK
6
CONTINUOUS
10
8.34042
20
-1.93936
11
8.36608
21
-1.89493
0
LINE
8
BLACK
6
CONTINUOUS
10
8.36608
20
-1.89493
11
8.41428
21
-1.87738
0
LINE
8
BLACK
6
CONTINUOUS
10
8.41428
20
-1.87738
11
8.625
21
-1.87738
0
LINE
8
BLACK
6
CONTINUOUS
10
8.625
20
-1.87738
11
8.625
21
-0.95238
0
LINE
8
BLACK
6
CONTINUOUS
10
8.625
20
-0.95238
11
8.62952
21
-0.926728
0
LINE
8
BLACK
6
CONTINUOUS
10
8.62952
20
-0.926728
11
8.63229
21
-0.923425
0
LINE
8
BLACK
6
CONTINUOUS
10
8.63229
20
-0.923425
11
8.63277
21
-0.919138
0
LINE
8
BLACK
6
CONTINUOUS
10
8.63277
20
-0.919138
11
8.64851
21
-0.904101
0
LINE
8
BLACK
6
CONTINUOUS
10
8.64851
20
-0.904101
11
8.6625
21
-0.887428
0
LINE
8
BLACK
6
CONTINUOUS
10
8.6625
20
-0.887428
11
8.66675
21
-0.886679
0
LINE
8
BLACK
6
CONTINUOUS
10
8.66675
20
-0.886679
11
8.66987
21
-0.883699
0
LINE
8
BLACK
6
CONTINUOUS
10
8.66987
20
-0.883699
11
8.69159
21
-0.882299
0
LINE
8
BLACK
6
CONTINUOUS
10
8.69159
20
-0.882299
11
8.71302
21
-0.878519
0
LINE
8
BLACK
6
CONTINUOUS
10
8.71302
20
-0.878519
11
8.71676
21
-0.880676
0
LINE
8
BLACK
6
CONTINUOUS
10
9.67446
20
-0.881274
11
9.6761
21
-0.881229
0
LINE
8
BLACK
6
CONTINUOUS
10
9.6761
20
-0.881229
11
9.81896
21
-0.928849
0
LINE
8
BLACK
6
CONTINUOUS
10
9.81896
20
-0.928849
11
9.84186
21
-0.941252
0
LINE
8
BLACK
6
CONTINUOUS
10
9.84186
20
-0.941252
11
9.84421
21
-0.945073
0
LINE
8
BLACK
6
CONTINUOUS
10
9.84421
20
-0.945073
11
9.84827
21
-0.946967
0
LINE
8
BLACK
6
CONTINUOUS
10
9.84827
20
-0.946967
11
9.94351
21
-1.04221
0
LINE
8
BLACK
6
CONTINUOUS
10
9.94351
20
-1.04221
11
9.95637
21
-1.06057
0
LINE
8
BLACK
6
CONTINUOUS
10
9.95637
20
-1.06057
11
9.95756
21
-1.0617
0
LINE
8
BLACK
6
CONTINUOUS
10
9.95756
20
-1.0617
11
10.0052
21
-1.15694
0
LINE
8
BLACK
6
CONTINUOUS
10
10.0052
20
-1.15694
11
10.0089
21
-1.16934
0
LINE
8
BLACK
6
CONTINUOUS
10
10.0089
20
-1.16934
11
10.0109
21
-1.17229
0
LINE
8
BLACK
6
CONTINUOUS
10
10.0109
20
-1.17229
11
10.0585
21
-1.36276
0
LINE
8
BLACK
6
CONTINUOUS
10
10.0585
20
-1.36276
11
10.0595
21
-1.37769
0
LINE
8
BLACK
6
CONTINUOUS
10
10.0595
20
-1.37769
11
10.0607
21
-1.38095
0
LINE
8
BLACK
6
CONTINUOUS
10
10.0607
20
-1.38095
11
10.0607
21
-1.52381
0
LINE
8
BLACK
6
CONTINUOUS
10
10.0607
20
-1.52381
11
10.0581
21
-1.53855
0
LINE
8
BLACK
6
CONTINUOUS
10
10.0581
20
-1.53855
11
10.0585
21
-1.542
0
LINE
8
BLACK
6
CONTINUOUS
10
10.0585
20
-1.542
11
10.0109
21
-1.73247
0
LINE
8
BLACK
6
CONTINUOUS
10
10.0109
20
-1.73247
11
10.0056
21
-1.7443
0
LINE
8
BLACK
6
CONTINUOUS
10
10.0056
20
-1.7443
11
10.0052
21
-1.74783
0
LINE
8
BLACK
6
CONTINUOUS
10
10.0052
20
-1.74783
11
9.95756
21
-1.84306
0
LINE
8
BLACK
6
CONTINUOUS
10
9.95756
20
-1.84306
11
9.9442
21
-1.86107
0
LINE
8
BLACK
6
CONTINUOUS
10
9.9442
20
-1.86107
11
9.94351
21
-1.86256
0
LINE
8
BLACK
6
CONTINUOUS
10
9.94351
20
-1.86256
11
9.84827
21
-1.95779
0
LINE
8
BLACK
6
CONTINUOUS
10
9.84827
20
-1.95779
11
9.82693
21
-1.97273
0
LINE
8
BLACK
6
CONTINUOUS
10
9.82693
20
-1.97273
11
9.82247
21
-1.97313
0
LINE
8
BLACK
6
CONTINUOUS
10
9.82247
20
-1.97313
11
9.81895
21
-1.97591
0
LINE
8
BLACK
6
CONTINUOUS
10
9.81895
20
-1.97591
11
9.6761
21
-2.02353
0
LINE
8
BLACK
6
CONTINUOUS
10
9.6761
20
-2.02353
11
9.65392
21
-2.02682
0
LINE
8
BLACK
6
CONTINUOUS
10
9.65392
20
-2.02682
11
9.65238
21
-2.02738
0
LINE
8
BLACK
6
CONTINUOUS
10
9.65238
20
-2.02738
11
9.55714
21
-2.02738
0
LINE
8
BLACK
6
CONTINUOUS
10
9.55714
20
-2.02738
11
9.53506
21
-2.02349
0
LINE
8
BLACK
6
CONTINUOUS
10
9.53506
20
-2.02349
11
9.53342
21
-2.02353
0
LINE
8
BLACK
6
CONTINUOUS
10
9.53342
20
-2.02353
11
9.39057
21
-1.97591
0
LINE
8
BLACK
6
CONTINUOUS
10
9.39057
20
-1.97591
11
9.36766
21
-1.96351
0
LINE
8
BLACK
6
CONTINUOUS
10
9.36766
20
-1.96351
11
9.36532
21
-1.95969
0
LINE
8
BLACK
6
CONTINUOUS
10
9.36532
20
-1.95969
11
9.36125
21
-1.95779
0
LINE
8
BLACK
6
CONTINUOUS
10
9.36125
20
-1.95779
11
9.31363
21
-1.91017
0
LINE
8
BLACK
6
CONTINUOUS
10
9.31363
20
-1.91017
11
9.29869
21
-1.88884
0
LINE
8
BLACK
6
CONTINUOUS
10
9.29869
20
-1.88884
11
9.29422
21
-1.83773
0
LINE
8
BLACK
6
CONTINUOUS
10
9.29422
20
-1.83773
11
9.32365
21
-1.7957
0
LINE
8
BLACK
6
CONTINUOUS
10
9.32365
20
-1.7957
11
9.3732
21
-1.78243
0
LINE
8
BLACK
6
CONTINUOUS
10
9.3732
20
-1.78243
11
9.4197
21
-1.80411
0
LINE
8
BLACK
6
CONTINUOUS
10
9.4197
20
-1.80411
11
9.4548
21
-1.83921
0
LINE
8
BLACK
6
CONTINUOUS
10
9.4548
20
-1.83921
11
9.56931
21
-1.87738
0
LINE
8
BLACK
6
CONTINUOUS
10
9.56931
20
-1.87738
11
9.64021
21
-1.87738
0
LINE
8
BLACK
6
CONTINUOUS
10
9.64021
20
-1.87738
11
9.75472
21
-1.83921
0
LINE
8
BLACK
6
CONTINUOUS
10
9.75472
20
-1.83921
11
9.82884
21
-1.7651
0
LINE
8
BLACK
6
CONTINUOUS
10
9.82884
20
-1.7651
11
9.86733
21
-1.68811
0
LINE
8
BLACK
6
CONTINUOUS
10
9.86733
20
-1.68811
11
9.91071
21
-1.51458
0
LINE
8
BLACK
6
CONTINUOUS
10
9.91071
20
-1.51458
11
9.91071
21
-1.39019
0
LINE
8
BLACK
6
CONTINUOUS
10
9.91071
20
-1.39019
11
9.86733
21
-1.21665
0
LINE
8
BLACK
6
CONTINUOUS
10
9.86733
20
-1.21665
11
9.82884
21
-1.13966
0
LINE
8
BLACK
6
CONTINUOUS
10
9.82884
20
-1.13966
11
9.75472
21
-1.06555
0
LINE
8
BLACK
6
CONTINUOUS
10
9.75472
20
-1.06555
11
9.64021
21
-1.02738
0
LINE
8
BLACK
6
CONTINUOUS
10
9.64021
20
-1.02738
11
9.56931
21
-1.02738
0
LINE
8
BLACK
6
CONTINUOUS
10
9.56931
20
-1.02738
11
9.4548
21
-1.06555
0
LINE
8
BLACK
6
CONTINUOUS
10
9.4548
20
-1.06555
11
9.4197
21
-1.10065
0
LINE
8
BLACK
6
CONTINUOUS
10
9.4197
20
-1.10065
11
9.39836
21
-1.11559
0
LINE
8
BLACK
6
CONTINUOUS
10
9.39836
20
-1.11559
11
9.34725
21
-1.12006
0
LINE
8
BLACK
6
CONTINUOUS
10
9.34725
20
-1.12006
11
9.30523
21
-1.09064
0
LINE
8
BLACK
6
CONTINUOUS
10
9.30523
20
-1.09064
11
9.29195
21
-1.04108
0
LINE
8
BLACK
6
CONTINUOUS
10
9.29195
20
-1.04108
11
9.31363
21
-0.994586
0
LINE
8
BLACK
6
CONTINUOUS
10
9.31363
20
-0.994586
11
9.36125
21
-0.946967
0
LINE
8
BLACK
6
CONTINUOUS
10
9.36125
20
-0.946967
11
9.38259
21
-0.932027
0
LINE
8
BLACK
6
CONTINUOUS
10
9.38259
20
-0.932027
11
9.38706
21
-0.931636
0
LINE
8
BLACK
6
CONTINUOUS
10
9.38706
20
-0.931636
11
9.39057
21
-0.928849
0
LINE
8
BLACK
6
CONTINUOUS
10
9.39057
20
-0.928849
11
9.53342
21
-0.881229
0
LINE
8
BLACK
6
CONTINUOUS
10
9.53342
20
-0.881229
11
9.5556
21
-0.87794
0
LINE
8
BLACK
6
CONTINUOUS
10
9.5556
20
-0.87794
11
9.55714
21
-0.87738
0
LINE
8
BLACK
6
CONTINUOUS
10
9.55714
20
-0.87738
11
9.65238
21
-0.87738
0
LINE
8
BLACK
6
CONTINUOUS
10
9.65238
20
-0.87738
11
9.67446
21
-0.881274
0
LINE
8
BLACK
6
CONTINUOUS
10
27.1276
20
1.48757
11
27.11
21
1.53
0
LINE
8
BLACK
6
CONTINUOUS
10
27.11
20
1.53
11
27.11
21
4.13
0
LINE
8
BLACK
6
CONTINUOUS
10
27.11
20
4.13
11
27.1276
21
4.17243
0
LINE
8
BLACK
6
CONTINUOUS
10
27.1276
20
4.17243
11
27.17
21
4.19
0
LINE
8
BLACK
6
CONTINUOUS
10
27.17
20
4.19
11
29.71
21
4.19
0
LINE
8
BLACK
6
CONTINUOUS
10
29.71
20
4.19
11
29.71
21
6.73
0
LINE
8
BLACK
6
CONTINUOUS
10
29.71
20
6.73
11
29.7276
21
6.77243
0
LINE
8
BLACK
6
CONTINUOUS
10
29.7276
20
6.77243
11
29.77
21
6.79
0
LINE
8
BLACK
6
CONTINUOUS
10
29.77
20
6.79
11
34.91
21
6.79
0
LINE
8
BLACK
6
CONTINUOUS
10
34.91
20
6.79
11
34.9524
21
6.77243
0
LINE
8
BLACK
6
CONTINUOUS
10
34.9524
20
6.77243
11
34.97
21
6.73
0
LINE
8
BLACK
6
CONTINUOUS
10
34.97
20
6.73
11
34.97
21
1.53
0
LINE
8
BLACK
6
CONTINUOUS
10
34.97
20
1.53
11
34.9524
21
1.48757
0
LINE
8
BLACK
6
CONTINUOUS
10
34.9524
20
1.48757
11
34.91
21
1.47
0
LINE
8
BLACK
6
CONTINUOUS
10
34.91
20
1.47
11
27.17
21
1.47
0
LINE
8
BLACK
6
CONTINUOUS
10
27.17
20
1.47
11
27.1276
21
1.48757
0
LINE
8
BLACK
6
CONTINUOUS
10
27.23
20
1.59
11
34.85
21
1.59
0
LINE
8
BLACK
6
CONTINUOUS
10
34.85
20
1.59
11
34.85
21
6.67
0
LINE
8
BLACK
6
CONTINUOUS
10
34.85
20
6.67
11
29.83
21
6.67
0
LINE
8
BLACK
6
CONTINUOUS
10
29.83
20
6.67
11
29.83
21
4.13
0
LINE
8
BLACK
6
CONTINUOUS
10
29.83
20
4.13
11
29.8124
21
4.08757
0
LINE
8
BLACK
6
CONTINUOUS
10
29.8124
20
4.08757
11
29.77
21
4.07
0
LINE
8
BLACK
6
CONTINUOUS
10
29.77
20
4.07
11
27.23
21
4.07
0
LINE
8
BLACK
6
CONTINUOUS
10
27.23
20
4.07
11
27.23
21
1.59
0
LINE
8
BLACK
6
CONTINUOUS
10
26.6384
20
4.15453
11
26.6418
21
4.15482
0
LINE
8
BLACK
6
CONTINUOUS
10
26.6418
20
4.15482
11
26.6603
21
4.14188
0
LINE
8
BLACK
6
CONTINUOUS
10
26.6603
20
4.14188
11
26.6798
21
4.13059
0
LINE
8
BLACK
6
CONTINUOUS
10
26.6798
20
4.13059
11
26.681
21
4.12737
0
LINE
8
BLACK
6
CONTINUOUS
10
26.681
20
4.12737
11
26.6838
21
4.1254
0
LINE
8
BLACK
6
CONTINUOUS
10
26.6838
20
4.1254
11
26.6897
21
4.10359
0
LINE
8
BLACK
6
CONTINUOUS
10
26.6897
20
4.10359
11
26.6974
21
4.08238
0
LINE
8
BLACK
6
CONTINUOUS
10
26.6974
20
4.08238
11
26.6974
21
3.46333
0
LINE
8
BLACK
6
CONTINUOUS
10
26.6974
20
3.46333
11
26.6929
21
3.43768
0
LINE
8
BLACK
6
CONTINUOUS
10
26.6929
20
3.43768
11
26.6599
21
3.39838
0
LINE
8
BLACK
6
CONTINUOUS
10
26.6599
20
3.39838
11
26.6094
21
3.38947
0
LINE
8
BLACK
6
CONTINUOUS
10
26.6094
20
3.38947
11
26.5649
21
3.41512
0
LINE
8
BLACK
6
CONTINUOUS
10
26.5649
20
3.41512
11
26.5474
21
3.46333
0
LINE
8
BLACK
6
CONTINUOUS
10
26.5474
20
3.46333
11
26.5474
21
3.90131
0
LINE
8
BLACK
6
CONTINUOUS
10
26.5474
20
3.90131
11
26.104
21
3.45792
0
LINE
8
BLACK
6
CONTINUOUS
10
26.104
20
3.45792
11
26.0826
21
3.44298
0
LINE
8
BLACK
6
CONTINUOUS
10
26.0826
20
3.44298
11
26.0782
21
3.44259
0
LINE
8
BLACK
6
CONTINUOUS
10
26.0782
20
3.44259
11
26.0747
21
3.4398
0
LINE
8
BLACK
6
CONTINUOUS
10
26.0747
20
3.4398
11
25.9318
21
3.39218
0
LINE
8
BLACK
6
CONTINUOUS
10
25.9318
20
3.39218
11
25.9096
21
3.38889
0
LINE
8
BLACK
6
CONTINUOUS
10
25.9096
20
3.38889
11
25.9081
21
3.38833
0
LINE
8
BLACK
6
CONTINUOUS
10
25.9081
20
3.38833
11
25.8129
21
3.38833
0
LINE
8
BLACK
6
CONTINUOUS
10
25.8129
20
3.38833
11
25.7872
21
3.39286
0
LINE
8
BLACK
6
CONTINUOUS
10
25.7872
20
3.39286
11
25.7838
21
3.39574
0
LINE
8
BLACK
6
CONTINUOUS
10
25.7838
20
3.39574
11
25.7793
21
3.39625
0
LINE
8
BLACK
6
CONTINUOUS
10
25.7793
20
3.39625
11
25.6841
21
3.44387
0
LINE
8
BLACK
6
CONTINUOUS
10
25.6841
20
3.44387
11
25.6661
21
3.45723
0
LINE
8
BLACK
6
CONTINUOUS
10
25.6661
20
3.45723
11
25.6646
21
3.45792
0
LINE
8
BLACK
6
CONTINUOUS
10
25.6646
20
3.45792
11
25.617
21
3.50554
0
LINE
8
BLACK
6
CONTINUOUS
10
25.617
20
3.50554
11
25.6041
21
3.5239
0
LINE
8
BLACK
6
CONTINUOUS
10
25.6041
20
3.5239
11
25.6029
21
3.52503
0
LINE
8
BLACK
6
CONTINUOUS
10
25.6029
20
3.52503
11
25.5553
21
3.62027
0
LINE
8
BLACK
6
CONTINUOUS
10
25.5553
20
3.62027
11
25.5479
21
3.64524
0
LINE
8
BLACK
6
CONTINUOUS
10
25.5479
20
3.64524
11
25.5489
21
3.6496
0
LINE
8
BLACK
6
CONTINUOUS
10
25.5489
20
3.6496
11
25.5474
21
3.65381
0
LINE
8
BLACK
6
CONTINUOUS
10
25.5474
20
3.65381
11
25.5474
21
3.8919
0
LINE
8
BLACK
6
CONTINUOUS
10
25.5474
20
3.8919
11
25.5519
21
3.91756
0
LINE
8
BLACK
6
CONTINUOUS
10
25.5519
20
3.91756
11
25.5548
21
3.92099
0
LINE
8
BLACK
6
CONTINUOUS
10
25.5548
20
3.92099
11
25.5553
21
3.92545
0
LINE
8
BLACK
6
CONTINUOUS
10
25.5553
20
3.92545
11
25.6029
21
4.02068
0
LINE
8
BLACK
6
CONTINUOUS
10
25.6029
20
4.02068
11
25.6163
21
4.03869
0
LINE
8
BLACK
6
CONTINUOUS
10
25.6163
20
4.03869
11
25.617
21
4.04018
0
LINE
8
BLACK
6
CONTINUOUS
10
25.617
20
4.04018
11
25.6646
21
4.08779
0
LINE
8
BLACK
6
CONTINUOUS
10
25.6646
20
4.08779
11
25.6859
21
4.10274
0
LINE
8
BLACK
6
CONTINUOUS
10
25.6859
20
4.10274
11
25.737
21
4.10721
0
LINE
8
BLACK
6
CONTINUOUS
10
25.737
20
4.10721
11
25.7791
21
4.07778
0
LINE
8
BLACK
6
CONTINUOUS
10
25.7791
20
4.07778
11
25.7923
21
4.02822
0
LINE
8
BLACK
6
CONTINUOUS
10
25.7923
20
4.02822
11
25.7707
21
3.98173
0
LINE
8
BLACK
6
CONTINUOUS
10
25.7707
20
3.98173
11
25.7316
21
3.94272
0
LINE
8
BLACK
6
CONTINUOUS
10
25.7316
20
3.94272
11
25.6974
21
3.8742
0
LINE
8
BLACK
6
CONTINUOUS
10
25.6974
20
3.8742
11
25.6974
21
3.67152
0
LINE
8
BLACK
6
CONTINUOUS
10
25.6974
20
3.67152
11
25.7316
21
3.603
0
LINE
8
BLACK
6
CONTINUOUS
10
25.7316
20
3.603
11
25.762
21
3.57259
0
LINE
8
BLACK
6
CONTINUOUS
10
25.762
20
3.57259
11
25.8306
21
3.53833
0
LINE
8
BLACK
6
CONTINUOUS
10
25.8306
20
3.53833
11
25.8959
21
3.53833
0
LINE
8
BLACK
6
CONTINUOUS
10
25.8959
20
3.53833
11
26.0104
21
3.57651
0
LINE
8
BLACK
6
CONTINUOUS
10
26.0104
20
3.57651
11
26.5693
21
4.13541
0
LINE
8
BLACK
6
CONTINUOUS
10
26.5693
20
4.13541
11
26.5828
21
4.1448
0
LINE
8
BLACK
6
CONTINUOUS
10
26.5828
20
4.1448
11
26.5849
21
4.14733
0
LINE
8
BLACK
6
CONTINUOUS
10
26.5849
20
4.14733
11
26.5869
21
4.14768
0
LINE
8
BLACK
6
CONTINUOUS
10
26.5869
20
4.14768
11
26.5907
21
4.15035
0
LINE
8
BLACK
6
CONTINUOUS
10
26.5907
20
4.15035
11
26.6132
21
4.15232
0
LINE
8
BLACK
6
CONTINUOUS
10
26.6132
20
4.15232
11
26.6354
21
4.15624
0
LINE
8
BLACK
6
CONTINUOUS
10
26.6354
20
4.15624
11
26.6384
21
4.15453
0
LINE
8
BLACK
6
CONTINUOUS
10
26.6798
20
4.89249
11
26.6974
21
4.84429
0
LINE
8
BLACK
6
CONTINUOUS
10
26.6974
20
4.84429
11
26.6974
21
4.74905
0
LINE
8
BLACK
6
CONTINUOUS
10
26.6974
20
4.74905
11
26.6935
21
4.72696
0
LINE
8
BLACK
6
CONTINUOUS
10
26.6935
20
4.72696
11
26.6935
21
4.72533
0
LINE
8
BLACK
6
CONTINUOUS
10
26.6935
20
4.72533
11
26.6459
21
4.58247
0
LINE
8
BLACK
6
CONTINUOUS
10
26.6459
20
4.58247
11
26.6335
21
4.55957
0
LINE
8
BLACK
6
CONTINUOUS
10
26.6335
20
4.55957
11
26.6297
21
4.55722
0
LINE
8
BLACK
6
CONTINUOUS
10
26.6297
20
4.55722
11
26.6278
21
4.55316
0
LINE
8
BLACK
6
CONTINUOUS
10
26.6278
20
4.55316
11
26.5326
21
4.45792
0
LINE
8
BLACK
6
CONTINUOUS
10
26.5326
20
4.45792
11
26.5112
21
4.44298
0
LINE
8
BLACK
6
CONTINUOUS
10
26.5112
20
4.44298
11
26.5068
21
4.44259
0
LINE
8
BLACK
6
CONTINUOUS
10
26.5068
20
4.44259
11
26.5032
21
4.4398
0
LINE
8
BLACK
6
CONTINUOUS
10
26.5032
20
4.4398
11
26.3604
21
4.39218
0
LINE
8
BLACK
6
CONTINUOUS
10
26.3604
20
4.39218
11
26.3382
21
4.38889
0
LINE
8
BLACK
6
CONTINUOUS
10
26.3382
20
4.38889
11
26.3367
21
4.38833
0
LINE
8
BLACK
6
CONTINUOUS
10
26.3367
20
4.38833
11
25.6224
21
4.38833
0
LINE
8
BLACK
6
CONTINUOUS
10
25.6224
20
4.38833
11
25.5967
21
4.39286
0
LINE
8
BLACK
6
CONTINUOUS
10
25.5967
20
4.39286
11
25.5574
21
4.42583
0
LINE
8
BLACK
6
CONTINUOUS
10
25.5574
20
4.42583
11
25.5485
21
4.47636
0
LINE
8
BLACK
6
CONTINUOUS
10
25.5485
20
4.47636
11
25.5742
21
4.52079
0
LINE
8
BLACK
6
CONTINUOUS
10
25.5742
20
4.52079
11
25.6224
21
4.53833
0
LINE
8
BLACK
6
CONTINUOUS
10
25.6224
20
4.53833
11
26.3245
21
4.53833
0
LINE
8
BLACK
6
CONTINUOUS
10
26.3245
20
4.53833
11
26.439
21
4.57651
0
LINE
8
BLACK
6
CONTINUOUS
10
26.439
20
4.57651
11
26.5092
21
4.6467
0
LINE
8
BLACK
6
CONTINUOUS
10
26.5092
20
4.6467
11
26.5474
21
4.76122
0
LINE
8
BLACK
6
CONTINUOUS
10
26.5474
20
4.76122
11
26.5474
21
4.84429
0
LINE
8
BLACK
6
CONTINUOUS
10
26.5474
20
4.84429
11
26.5519
21
4.86994
0
LINE
8
BLACK
6
CONTINUOUS
10
26.5519
20
4.86994
11
26.5849
21
4.90924
0
LINE
8
BLACK
6
CONTINUOUS
10
26.5849
20
4.90924
11
26.6354
21
4.91815
0
LINE
8
BLACK
6
CONTINUOUS
10
26.6354
20
4.91815
11
26.6798
21
4.89249
0
LINE
8
BLACK
6
CONTINUOUS
10
28.5424
20
6.77243
11
28.56
21
6.73
0
LINE
8
BLACK
6
CONTINUOUS
10
28.56
20
6.73
11
28.5424
21
6.68757
0
LINE
8
BLACK
6
CONTINUOUS
10
28.5424
20
6.68757
11
28.5
21
6.67
0
LINE
8
BLACK
6
CONTINUOUS
10
28.5
20
6.67
11
27.23
21
6.67
0
LINE
8
BLACK
6
CONTINUOUS
10
27.23
20
6.67
11
27.23
21
5.4
0
LINE
8
BLACK
6
CONTINUOUS
10
27.23
20
5.4
11
27.2124
21
5.35757
0
LINE
8
BLACK
6
CONTINUOUS
10
27.2124
20
5.35757
11
27.17
21
5.34
0
LINE
8
BLACK
6
CONTINUOUS
10
27.17
20
5.34
11
27.1276
21
5.35757
0
LINE
8
BLACK
6
CONTINUOUS
10
27.1276
20
5.35757
11
27.11
21
5.4
0
LINE
8
BLACK
6
CONTINUOUS
10
27.11
20
5.4
11
27.11
21
6.73
0
LINE
8
BLACK
6
CONTINUOUS
10
27.11
20
6.73
11
27.1276
21
6.77243
0
LINE
8
BLACK
6
CONTINUOUS
10
27.1276
20
6.77243
11
27.17
21
6.79
0
LINE
8
BLACK
6
CONTINUOUS
10
27.17
20
6.79
11
28.5
21
6.79
0
LINE
8
BLACK
6
CONTINUOUS
10
28.5
20
6.79
11
28.5424
21
6.77243
  0
ENDSEC
  0
EOF
