  0
SECTION
  2
HEADER
  9
$ANGBASE
  50
0.0
  9
$ANGDIR
  70
1
  9
$MEASUREMENT
  70
1
  0
ENDSEC
  0
SECTION
  2
TABLES
  0
TABLE
  2
LTYPE
  70
4
  0
LTYPE
  5
40F
  2
CONTINUOUS
  70
0
  3
Solid line
  72
65
  73
0
  40
0.0
  0
LTYPE
  5
410
  2
DASHDOT
 70
0
  3
Dash Dot ____ _ ____ _
 72
65
 73
4
 40
2.0
 49
1.25
 49
-0.25
 49
0.25
 49
-0.25
  0
LTYPE
  5
411
  2
DASHED
 70
0
  3
Dashed __ __ __ __ __
 72
65
 73
2
 40
0.75
 49
0.5
 49
-0.25
  0
LTYPE
  5
43B
  2
DOTTED
 70
0
  3
Dotted .  .  .  .
 72
65
 73
2
 40
0.2
 49
0.0
 49
-0.2
  0
ENDTAB
  0
TABLE
  2
STYLE
  70
4
  0
STYLE
  2
KICAD
  70
0
  40
0
  41
1
  42
1
  50
0
  71
0
  3
isocp.shx
  0
STYLE
  2
KICADB
  70
0
  40
0
  41
1
  42
1
  50
0
  71
0
  3
isocp.shx
  0
STYLE
  2
KICADI
  70
0
  40
0
  41
1
  42
1
  50
15
  71
0
  3
isocp.shx
  0
STYLE
  2
KICADBI
  70
0
  40
0
  41
1
  42
1
  50
15
  71
0
  3
isocp.shx
  0
ENDTAB
  0
TABLE
  2
LAYER
  70
1
  0
LAYER
  2
BLACK
  70
0
  62
7
  6
CONTINUOUS
  0
ENDTAB
  0
ENDSEC
  0
SECTION
  2
ENTITIES
0
LINE
8
BLACK
6
CONTINUOUS
10
121.907
20
-110.032
11
121.644
21
-109.98
0
LINE
8
BLACK
6
CONTINUOUS
10
121.644
20
-109.98
11
121.39
21
-109.894
0
LINE
8
BLACK
6
CONTINUOUS
10
121.39
20
-109.894
11
121.15
21
-109.775
0
LINE
8
BLACK
6
CONTINUOUS
10
121.15
20
-109.775
11
120.927
21
-109.626
0
LINE
8
BLACK
6
CONTINUOUS
10
120.927
20
-109.626
11
120.725
21
-109.45
0
LINE
8
BLACK
6
CONTINUOUS
10
120.725
20
-109.45
11
120.549
21
-109.248
0
LINE
8
BLACK
6
CONTINUOUS
10
120.549
20
-109.248
11
120.4
21
-109.025
0
LINE
8
BLACK
6
CONTINUOUS
10
120.4
20
-109.025
11
120.281
21
-108.785
0
LINE
8
BLACK
6
CONTINUOUS
10
120.281
20
-108.785
11
120.195
21
-108.531
0
LINE
8
BLACK
6
CONTINUOUS
10
120.195
20
-108.531
11
120.143
21
-108.268
0
LINE
8
BLACK
6
CONTINUOUS
10
120.143
20
-108.268
11
120.125
21
-108
0
LINE
8
BLACK
6
CONTINUOUS
10
120.125
20
-108
11
120.125
21
-72
0
LINE
8
BLACK
6
CONTINUOUS
10
120.125
20
-72
11
120.143
21
-71.7324
0
LINE
8
BLACK
6
CONTINUOUS
10
120.143
20
-71.7324
11
120.195
21
-71.4694
0
LINE
8
BLACK
6
CONTINUOUS
10
120.195
20
-71.4694
11
120.281
21
-71.2155
0
LINE
8
BLACK
6
CONTINUOUS
10
120.281
20
-71.2155
11
120.4
21
-70.975
0
LINE
8
BLACK
6
CONTINUOUS
10
120.4
20
-70.975
11
120.549
21
-70.752
0
LINE
8
BLACK
6
CONTINUOUS
10
120.549
20
-70.752
11
120.725
21
-70.5504
0
LINE
8
BLACK
6
CONTINUOUS
10
120.725
20
-70.5504
11
120.927
21
-70.3736
0
LINE
8
BLACK
6
CONTINUOUS
10
120.927
20
-70.3736
11
121.15
21
-70.2246
0
LINE
8
BLACK
6
CONTINUOUS
10
121.15
20
-70.2246
11
121.39
21
-70.106
0
LINE
8
BLACK
6
CONTINUOUS
10
121.39
20
-70.106
11
121.644
21
-70.0199
0
LINE
8
BLACK
6
CONTINUOUS
10
121.644
20
-70.0199
11
121.907
21
-69.9675
0
LINE
8
BLACK
6
CONTINUOUS
10
121.907
20
-69.9675
11
122.175
21
-69.95
0
LINE
8
BLACK
6
CONTINUOUS
10
122.175
20
-69.95
11
158.175
21
-69.95
0
LINE
8
BLACK
6
CONTINUOUS
10
158.175
20
-69.95
11
158.443
21
-69.9675
0
LINE
8
BLACK
6
CONTINUOUS
10
158.443
20
-69.9675
11
158.706
21
-70.0199
0
LINE
8
BLACK
6
CONTINUOUS
10
158.706
20
-70.0199
11
158.96
21
-70.106
0
LINE
8
BLACK
6
CONTINUOUS
10
158.96
20
-70.106
11
159.2
21
-70.2246
0
LINE
8
BLACK
6
CONTINUOUS
10
159.2
20
-70.2246
11
159.423
21
-70.3736
0
LINE
8
BLACK
6
CONTINUOUS
10
159.423
20
-70.3736
11
159.625
21
-70.5504
0
LINE
8
BLACK
6
CONTINUOUS
10
159.625
20
-70.5504
11
159.801
21
-70.752
0
LINE
8
BLACK
6
CONTINUOUS
10
159.801
20
-70.752
11
159.95
21
-70.975
0
LINE
8
BLACK
6
CONTINUOUS
10
159.95
20
-70.975
11
160.069
21
-71.2155
0
LINE
8
BLACK
6
CONTINUOUS
10
160.069
20
-71.2155
11
160.155
21
-71.4694
0
LINE
8
BLACK
6
CONTINUOUS
10
160.155
20
-71.4694
11
160.207
21
-71.7324
0
LINE
8
BLACK
6
CONTINUOUS
10
160.207
20
-71.7324
11
160.225
21
-72
0
LINE
8
BLACK
6
CONTINUOUS
10
160.225
20
-72
11
160.225
21
-108
0
LINE
8
BLACK
6
CONTINUOUS
10
160.225
20
-108
11
160.207
21
-108.268
0
LINE
8
BLACK
6
CONTINUOUS
10
160.207
20
-108.268
11
160.155
21
-108.531
0
LINE
8
BLACK
6
CONTINUOUS
10
160.155
20
-108.531
11
160.069
21
-108.785
0
LINE
8
BLACK
6
CONTINUOUS
10
160.069
20
-108.785
11
159.95
21
-109.025
0
LINE
8
BLACK
6
CONTINUOUS
10
159.95
20
-109.025
11
159.801
21
-109.248
0
LINE
8
BLACK
6
CONTINUOUS
10
159.801
20
-109.248
11
159.625
21
-109.45
0
LINE
8
BLACK
6
CONTINUOUS
10
159.625
20
-109.45
11
159.423
21
-109.626
0
LINE
8
BLACK
6
CONTINUOUS
10
159.423
20
-109.626
11
159.2
21
-109.775
0
LINE
8
BLACK
6
CONTINUOUS
10
159.2
20
-109.775
11
158.96
21
-109.894
0
LINE
8
BLACK
6
CONTINUOUS
10
158.96
20
-109.894
11
158.706
21
-109.98
0
LINE
8
BLACK
6
CONTINUOUS
10
158.706
20
-109.98
11
158.443
21
-110.032
0
LINE
8
BLACK
6
CONTINUOUS
10
158.443
20
-110.032
11
158.175
21
-110.05
0
LINE
8
BLACK
6
CONTINUOUS
10
158.175
20
-110.05
11
122.175
21
-110.05
0
LINE
8
BLACK
6
CONTINUOUS
10
122.175
20
-110.05
11
121.907
21
-110.032
0
LINE
8
BLACK
6
CONTINUOUS
10
122.166
20
-70.0464
11
121.92
21
-70.0625
0
LINE
8
BLACK
6
CONTINUOUS
10
121.92
20
-70.0625
11
121.669
21
-70.1124
0
LINE
8
BLACK
6
CONTINUOUS
10
121.669
20
-70.1124
11
121.427
21
-70.1946
0
LINE
8
BLACK
6
CONTINUOUS
10
121.427
20
-70.1946
11
121.198
21
-70.3076
0
LINE
8
BLACK
6
CONTINUOUS
10
121.198
20
-70.3076
11
120.985
21
-70.4496
0
LINE
8
BLACK
6
CONTINUOUS
10
120.985
20
-70.4496
11
120.793
21
-70.6182
0
LINE
8
BLACK
6
CONTINUOUS
10
120.793
20
-70.6182
11
120.625
21
-70.8104
0
LINE
8
BLACK
6
CONTINUOUS
10
120.625
20
-70.8104
11
120.483
21
-71.0229
0
LINE
8
BLACK
6
CONTINUOUS
10
120.483
20
-71.0229
11
120.37
21
-71.2522
0
LINE
8
BLACK
6
CONTINUOUS
10
120.37
20
-71.2522
11
120.287
21
-71.4942
0
LINE
8
BLACK
6
CONTINUOUS
10
120.287
20
-71.4942
11
120.238
21
-71.7449
0
LINE
8
BLACK
6
CONTINUOUS
10
120.238
20
-71.7449
11
120.221
21
-71.9913
0
LINE
8
BLACK
6
CONTINUOUS
10
120.221
20
-71.9913
11
120.225
21
-72
0
LINE
8
BLACK
6
CONTINUOUS
10
120.225
20
-72
11
120.225
21
-108
0
LINE
8
BLACK
6
CONTINUOUS
10
120.225
20
-108
11
120.221
21
-108.009
0
LINE
8
BLACK
6
CONTINUOUS
10
120.221
20
-108.009
11
120.238
21
-108.255
0
LINE
8
BLACK
6
CONTINUOUS
10
120.238
20
-108.255
11
120.287
21
-108.506
0
LINE
8
BLACK
6
CONTINUOUS
10
120.287
20
-108.506
11
120.37
21
-108.748
0
LINE
8
BLACK
6
CONTINUOUS
10
120.37
20
-108.748
11
120.483
21
-108.977
0
LINE
8
BLACK
6
CONTINUOUS
10
120.483
20
-108.977
11
120.625
21
-109.19
0
LINE
8
BLACK
6
CONTINUOUS
10
120.625
20
-109.19
11
120.793
21
-109.382
0
LINE
8
BLACK
6
CONTINUOUS
10
120.793
20
-109.382
11
120.985
21
-109.55
0
LINE
8
BLACK
6
CONTINUOUS
10
120.985
20
-109.55
11
121.198
21
-109.692
0
LINE
8
BLACK
6
CONTINUOUS
10
121.198
20
-109.692
11
121.427
21
-109.805
0
LINE
8
BLACK
6
CONTINUOUS
10
121.427
20
-109.805
11
121.669
21
-109.888
0
LINE
8
BLACK
6
CONTINUOUS
10
121.669
20
-109.888
11
121.92
21
-109.937
0
LINE
8
BLACK
6
CONTINUOUS
10
121.92
20
-109.937
11
122.166
21
-109.954
0
LINE
8
BLACK
6
CONTINUOUS
10
122.166
20
-109.954
11
122.175
21
-109.95
0
LINE
8
BLACK
6
CONTINUOUS
10
122.175
20
-109.95
11
158.175
21
-109.95
0
LINE
8
BLACK
6
CONTINUOUS
10
158.175
20
-109.95
11
158.184
21
-109.954
0
LINE
8
BLACK
6
CONTINUOUS
10
158.184
20
-109.954
11
158.43
21
-109.937
0
LINE
8
BLACK
6
CONTINUOUS
10
158.43
20
-109.937
11
158.681
21
-109.888
0
LINE
8
BLACK
6
CONTINUOUS
10
158.681
20
-109.888
11
158.923
21
-109.805
0
LINE
8
BLACK
6
CONTINUOUS
10
158.923
20
-109.805
11
159.152
21
-109.692
0
LINE
8
BLACK
6
CONTINUOUS
10
159.152
20
-109.692
11
159.365
21
-109.55
0
LINE
8
BLACK
6
CONTINUOUS
10
159.365
20
-109.55
11
159.557
21
-109.382
0
LINE
8
BLACK
6
CONTINUOUS
10
159.557
20
-109.382
11
159.725
21
-109.19
0
LINE
8
BLACK
6
CONTINUOUS
10
159.725
20
-109.19
11
159.867
21
-108.977
0
LINE
8
BLACK
6
CONTINUOUS
10
159.867
20
-108.977
11
159.98
21
-108.748
0
LINE
8
BLACK
6
CONTINUOUS
10
159.98
20
-108.748
11
160.063
21
-108.506
0
LINE
8
BLACK
6
CONTINUOUS
10
160.063
20
-108.506
11
160.112
21
-108.255
0
LINE
8
BLACK
6
CONTINUOUS
10
160.112
20
-108.255
11
160.129
21
-108.009
0
LINE
8
BLACK
6
CONTINUOUS
10
160.129
20
-108.009
11
160.125
21
-108
0
LINE
8
BLACK
6
CONTINUOUS
10
160.125
20
-108
11
160.125
21
-72
0
LINE
8
BLACK
6
CONTINUOUS
10
160.125
20
-72
11
160.129
21
-71.9913
0
LINE
8
BLACK
6
CONTINUOUS
10
160.129
20
-71.9913
11
160.112
21
-71.7449
0
LINE
8
BLACK
6
CONTINUOUS
10
160.112
20
-71.7449
11
160.063
21
-71.4942
0
LINE
8
BLACK
6
CONTINUOUS
10
160.063
20
-71.4942
11
159.98
21
-71.2522
0
LINE
8
BLACK
6
CONTINUOUS
10
159.98
20
-71.2522
11
159.867
21
-71.0229
0
LINE
8
BLACK
6
CONTINUOUS
10
159.867
20
-71.0229
11
159.725
21
-70.8104
0
LINE
8
BLACK
6
CONTINUOUS
10
159.725
20
-70.8104
11
159.557
21
-70.6182
0
LINE
8
BLACK
6
CONTINUOUS
10
159.557
20
-70.6182
11
159.365
21
-70.4496
0
LINE
8
BLACK
6
CONTINUOUS
10
159.365
20
-70.4496
11
159.152
21
-70.3076
0
LINE
8
BLACK
6
CONTINUOUS
10
159.152
20
-70.3076
11
158.923
21
-70.1946
0
LINE
8
BLACK
6
CONTINUOUS
10
158.923
20
-70.1946
11
158.681
21
-70.1124
0
LINE
8
BLACK
6
CONTINUOUS
10
158.681
20
-70.1124
11
158.43
21
-70.0625
0
LINE
8
BLACK
6
CONTINUOUS
10
158.43
20
-70.0625
11
158.184
21
-70.0464
0
LINE
8
BLACK
6
CONTINUOUS
10
158.184
20
-70.0464
11
158.175
21
-70.05
0
LINE
8
BLACK
6
CONTINUOUS
10
158.175
20
-70.05
11
122.175
21
-70.05
0
LINE
8
BLACK
6
CONTINUOUS
10
122.175
20
-70.05
11
122.166
21
-70.0464
  0
ENDSEC
  0
EOF
