<?xml version="1.0" encoding="UTF-8" standalone="no"?>
<!-- Created with Inkscape (http://www.inkscape.org/) -->

<svg
   version="1.1"
   id="svg2"
   width="332.79999"
   height="299.20001"
   viewBox="0 0 332.79999 299.20001"
   sodipodi:docname="dessin_un_de_en_perspective.svg"
   inkscape:version="1.1 (c68e22c387, 2021-05-23)"
   xmlns:inkscape="http://www.inkscape.org/namespaces/inkscape"
   xmlns:sodipodi="http://sodipodi.sourceforge.net/DTD/sodipodi-0.dtd"
   xmlns="http://www.w3.org/2000/svg"
   xmlns:svg="http://www.w3.org/2000/svg">
  <defs
     id="defs6" />
  <sodipodi:namedview
     id="namedview4"
     pagecolor="#ffffff"
     bordercolor="#666666"
     borderopacity="1.0"
     inkscape:pageshadow="2"
     inkscape:pageopacity="0.0"
     inkscape:pagecheckerboard="0"
     showgrid="false"
     inkscape:zoom="2.7139036"
     inkscape:cx="166.54976"
     inkscape:cy="120.30641"
     inkscape:window-width="1920"
     inkscape:window-height="1001"
     inkscape:window-x="-9"
     inkscape:window-y="-9"
     inkscape:window-maximized="1"
     inkscape:current-layer="layer1" />
  <g
     inkscape:groupmode="layer"
     id="layer1"
     inkscape:label="Cube-De">
    <path
       style="fill:#000000;stroke-width:0.8"
       d="M 105.72055,290.36461 C 98.56972,288.46657 93.01728,285.32179 87.6388,280.12351 84.00616,276.61258 72.25181,260.46292 45.86614,222.73077 12.7069,175.31224 9.0099301,169.7116 7.7180901,164.93915 c -1.70072,-6.28296 -1.29702,-13.4921 1.05986,-18.92678 C 9.6305601,144.04635 21.57677,119.39779 35.32507,91.237796 49.07338,63.077795 62.44228,35.672106 65.03373,30.336265 70.59088,18.894034 74.21231,14.477794 81.00845,10.855483 85.50477,8.4589728 86.94452,8.1266828 95.26519,7.5650128 c 14.8468,-1.00219 122.46175,-0.8752 127.41598,0.15036 5.98873,1.23971 14.78257,5.6842502 19.19664,9.7022682 5.10918,4.650757 78.85732,99.889759 81.68756,105.492039 3.17564,6.28599 3.75394,14.51916 1.48403,21.12811 -2.28384,6.64953 -60.33935,125.31756 -63.38008,129.55171 -3.75854,5.23368 -9.81472,9.12324 -16.84127,10.81623 -3.21144,0.77377 -122.25339,7.30082 -130.94018,7.17942 -2.07203,-0.029 -5.74732,-0.5782 -8.16732,-1.22054 z m 81.99999,-14.38511 c 60.34463,-3.15629 58.59443,-2.91273 63.51103,-8.83836 2.5848,-3.11525 62.48897,-125.01499 62.48897,-127.15955 0,-1.682 -125.04726,-1.71515 -130.6312,-0.0346 -4.31833,1.29963 -7.36293,3.52213 -9.861,7.19836 -0.98877,1.45512 -15.88478,31.5562 -33.10224,66.89129 -24.13539,49.53262 -31.06413,64.41312 -30.25501,64.97702 1.26801,0.8837 7.84883,0.62722 77.84945,-3.03413 z m -40.39999,-11.55306 c -6.14143,-1.05115 -9.6,-5.53899 -9.6,-12.45696 0,-4.97401 2.40009,-9.85559 7.21097,-14.66647 4.76436,-4.76436 9.57314,-7.60924 15.77816,-9.33439 5.84122,-1.624 9.58428,-1.09134 13.0961,1.86366 7.33436,6.17145 5.86456,16.70296 -3.57735,25.63273 -6.98584,6.60692 -16.01876,10.14055 -22.90788,8.96143 z m 50.79999,-37.50729 c -0.88,-0.39331 -2.657,-1.83215 -3.94889,-3.19742 -1.92603,-2.03543 -2.41083,-3.33855 -2.69293,-7.23857 -0.42921,-5.93375 1.5779,-10.50525 6.98731,-15.91466 10.70644,-10.70644 26.10294,-12.97469 31.18711,-4.59455 3.95211,6.51416 2.4673,13.78047 -4.31224,21.10319 -6.08681,6.57448 -12.62046,9.93968 -19.97657,10.28906 -3.10408,0.14743 -6.36379,-0.0538 -7.24379,-0.44705 z m 51.75349,-36.90087 c -3.06019,-1.86576 -5.71835,-7.06296 -5.71835,-11.18048 0,-9.88369 13.65877,-22.24428 26.22513,-23.73258 8.78003,-1.03986 15.30235,5.5752 14.25085,14.4535 -0.91769,7.74849 -9.27601,16.95508 -18.53946,20.42097 -5.83439,2.18293 -12.67435,2.1992 -16.21817,0.0386 z m -143.55987,66.17688 c 4.5065,-9.32655 17.49888,-36.03736 28.87198,-59.35736 29.32009,-60.1195 27.33441,-55.69585 27.33441,-60.89459 0,-5.80153 -0.94224,-7.62897 -9.85074,-19.10542 -4.09856,-5.28 -21.77948,-28.072066 -39.29093,-50.649036 C 84.14008,28.492052 81.45201,25.265168 80.46389,26.675916 79.87209,27.520828 65.82353,56.027104 49.24488,90.023196 29.09572,131.34093 18.97816,152.93173 18.72877,155.14439 c -0.20521,1.82056 0.0233,4.78218 0.50776,6.58139 0.58116,2.15826 13.15728,20.80054 36.96255,54.79165 32.64737,46.61659 40.10699,56.80971 41.4784,56.67773 0.24369,-0.0234 4.13019,-7.67345 8.63668,-17 z M 87.30807,235.75324 c -6.33607,-3.37443 -10.43745,-15.56499 -8.85275,-26.31307 1.93066,-13.09453 8.31595,-19.28413 18.01648,-17.4643 12.08191,2.26658 16.44805,29.0067 6.5727,40.2541 -4.37652,4.98459 -10.44246,6.3427 -15.73643,3.52327 z M 46.12055,177.10421 c -2.97869,-1.64745 -5.35142,-4.25256 -7.16474,-7.86641 -2.51953,-5.02129 -2.9484,-7.28989 -2.91,-15.39312 0.0384,-8.09322 1.66884,-12.86265 5.88763,-17.22234 6.47727,-6.69359 16.45023,-4.38767 20.91003,4.83476 6.5171,13.4767 2.52122,31.83962 -7.775,35.7298 -2.87954,1.08797 -6.89846,1.05083 -8.94792,-0.0827 z m 77.2004,-11.96517 c -12.50641,-4.98699 -14.53396,-32.65015 -3.06016,-41.75192 8.26663,-6.55764 18.42601,-1.6794 21.98279,10.5555 1.68076,5.78161 1.10779,16.61474 -1.14747,21.69518 -3.51681,7.92238 -11.30059,12.083 -17.77516,9.50124 z M 79.6414,106.9511 C 75.6029,105.07066 73.16168,101.75164 71.21382,95.493143 68.4606,86.64702 69.79255,74.525591 74.15241,68.750377 77.92673,63.7508 85.96913,62.088172 91.13709,65.239086 c 11.22157,6.841814 11.97907,32.796697 1.17497,40.259114 -4.14632,2.86387 -8.55475,3.36938 -12.67066,1.4529 z m 230.41919,16.88669 c -1.23742,-1.65 -5.31238,-6.96 -9.05546,-11.8 -3.74308,-4.84 -19.19641,-24.819994 -34.34073,-44.399995 -15.14432,-19.58 -29.34445,-37.464333 -31.55583,-39.74296 -2.41968,-2.493256 -5.96535,-5.0417 -8.90436,-6.4 l -4.88367,-2.257041 -62.79999,-0.110345 c -34.54,-0.06069 -63.44755,0.130175 -64.23899,0.424143 -1.19937,0.445488 1.60523,4.460223 16.84291,24.110346 10.05505,12.966722 26.49772,34.195858 36.53928,47.175858 19.68703,25.448034 22.53502,28.792014 26.92007,31.608434 6.91956,4.44428 4.67694,4.31204 73.83167,4.35337 l 63.89495,0.0382 z M 202.20741,88.363212 c -12.55044,-4.316488 -22.47895,-14.970779 -20.75915,-22.276674 1.09672,-4.658998 6.3617,-8.048743 12.50139,-8.048743 6.54897,0 16.89312,4.027005 23.29195,9.067621 9.18734,7.237236 10.4225,18.464908 2.40009,21.816884 -3.83703,1.603208 -11.89897,1.34468 -17.43428,-0.559088 z"
       id="path863-8" />
  </g>
</svg>
