<?xml version="1.0" encoding="UTF-8" standalone="no"?>
<!-- Created with Inkscape (http://www.inkscape.org/) -->

<svg
   width="109.00833mm"
   height="109.21999mm"
   viewBox="0 0 109.00833 109.21999"
   version="1.1"
   id="svg5"
   inkscape:version="1.1 (c68e22c387, 2021-05-23)"
   sodipodi:docname="dessin_de.svg"
   inkscape:export-filename="C:\github\fabtronic\De-Electronique\Docs\dessin_de.png"
   inkscape:export-xdpi="96"
   inkscape:export-ydpi="96"
   xmlns:inkscape="http://www.inkscape.org/namespaces/inkscape"
   xmlns:sodipodi="http://sodipodi.sourceforge.net/DTD/sodipodi-0.dtd"
   xmlns="http://www.w3.org/2000/svg"
   xmlns:svg="http://www.w3.org/2000/svg">
  <sodipodi:namedview
     id="namedview7"
     pagecolor="#ffffff"
     bordercolor="#666666"
     borderopacity="1.0"
     inkscape:pageshadow="2"
     inkscape:pageopacity="0.0"
     inkscape:pagecheckerboard="0"
     inkscape:document-units="mm"
     showgrid="false"
     inkscape:zoom="2.0460067"
     inkscape:cx="183.28386"
     inkscape:cy="211.87614"
     inkscape:window-width="1920"
     inkscape:window-height="1001"
     inkscape:window-x="-9"
     inkscape:window-y="-9"
     inkscape:window-maximized="1"
     inkscape:current-layer="layer2" />
  <defs
     id="defs2" />
  <g
     inkscape:groupmode="layer"
     id="layer2"
     inkscape:label="Calque De">
    <path
       style="fill:#000000;stroke-width:0.211667"
       d="m 61.688083,107.02123 c -0.236804,-0.2368 -0.430554,-0.58078 -0.430554,-0.7644 0,-0.18362 3.053677,-6.63681 6.785947,-14.340419 4.537521,-9.365689 7.009699,-14.238602 7.46125,-14.706879 0.371417,-0.385174 1.246803,-0.972874 1.945303,-1.306 l 1.27,-0.605684 13.652499,-0.127741 c 10.965572,-0.102599 13.756652,-0.07374 14.181672,0.146662 1.14212,0.592248 1.10036,0.699095 -6.03333,15.436436 -7.223068,14.921985 -7.226823,14.928365 -9.417366,16.005425 l -1.165142,0.57288 -13.909863,0.0601 c -13.745864,0.0594 -13.914939,0.0551 -14.340416,-0.37042 z m 26.883922,-3.37801 c 2.374612,-0.90228 4.302188,-3.40174 3.88661,-5.039703 -0.728541,-2.871481 -5.93428,-1.624197 -7.704653,1.846023 -1.356445,2.65885 0.699535,4.37862 3.818043,3.19368 z M 72.4637,103.40313 c 2.14463,-0.9729 3.610496,-2.80623 3.610496,-4.515561 0,-0.5977 -0.154206,-0.950326 -0.618719,-1.414837 -2.02993,-2.02993 -7.439941,1.057273 -7.417883,4.232988 0.01058,1.52294 0.692679,2.11928 2.427435,2.12221 0.612415,0.001 1.454535,-0.17795 1.998671,-0.4248 z m 20.649662,-8.788363 c 2.914307,-1.219169 4.585155,-4.332935 3.193326,-5.951034 -0.459766,-0.534509 -0.644936,-0.593885 -1.852083,-0.593885 -1.62653,0 -2.848699,0.540427 -4.18254,1.849462 -1.078033,1.057986 -1.49787,1.934735 -1.49787,3.128012 0,0.942503 0.676982,1.798692 1.55208,1.962935 0.636765,0.119514 2.027894,-0.07789 2.787087,-0.39549 z m -16.812289,0.01008 c 2.800335,-0.968544 4.957715,-4.124699 3.911189,-5.721902 -0.510455,-0.779052 -1.659105,-1.212793 -2.736183,-1.033206 -1.952742,0.325585 -4.039857,1.873175 -4.80836,3.565383 -0.517662,1.139873 -0.504059,1.847335 0.04904,2.550494 0.787273,1.000855 1.94288,1.206948 3.584309,0.639231 z m 21.546732,-9.186513 c 2.672035,-1.363167 4.140365,-4.114728 2.981765,-5.587644 -1.200435,-1.5261 -4.209273,-0.968288 -6.277438,1.163781 -1.817569,1.873728 -2.01092,3.862868 -0.462972,4.762923 0.698993,0.406432 2.6407,0.231273 3.758645,-0.33906 z m -16.699629,-0.02961 c 2.213559,-1.004096 3.604353,-2.722095 3.604353,-4.452334 0,-0.854657 -0.09358,-1.07682 -0.651241,-1.54606 -1.548911,-1.303322 -4.814503,-0.216603 -6.585439,2.191497 -0.457247,0.62176 -0.691428,1.215815 -0.759805,1.92743 -0.08921,0.928396 -0.036,1.091504 0.545873,1.673375 0.558957,0.558959 0.794694,0.644098 1.772247,0.640068 0.671498,-0.0028 1.510337,-0.178294 2.074012,-0.433983 z M 57.509571,105.04604 c -0.256919,-0.14281 -4.223247,-5.05262 -8.814062,-10.910696 -7.406777,-9.451365 -8.385293,-10.787743 -8.687458,-11.864655 -0.417208,-1.486913 -0.42963,-2.421392 -0.04838,-3.639277 0.160674,-0.513273 2.028664,-4.505098 4.151088,-8.870723 3.505473,-7.210429 5.222526,-10.751497 8.286811,-17.089857 0.583834,-1.207635 1.242803,-2.271713 1.488163,-2.403026 0.902248,-0.482869 1.119494,-0.268362 5.835072,5.761521 1.308506,1.673208 4.617481,5.899696 7.353276,9.392196 5.575912,7.118173 5.715682,7.369798 5.56336,10.015555 l -0.09362,1.62611 -6.701676,13.758332 c -3.68592,7.567083 -6.902638,13.92502 -7.148258,14.12875 -0.522579,0.43345 -0.569908,0.43728 -1.184311,0.0958 z m 0.952028,-7.888507 c 1.304286,-0.913558 1.922088,-4.081558 1.212552,-6.217774 -1.143447,-3.44259 -4.290373,-3.396405 -5.300349,0.07779 -0.863497,2.970318 0.668219,6.471462 2.831204,6.471462 0.430831,0 0.996298,-0.14917 1.256593,-0.331487 z M 47.891083,83.618835 c 1.330337,-1.119406 1.821696,-4.179824 1.011633,-6.300942 -0.387312,-1.01416 -1.574845,-2.247629 -2.204635,-2.289911 -1.362528,-0.09148 -2.058014,0.380604 -2.733093,1.855173 -1.026042,2.241169 -0.345301,5.87166 1.287687,6.867425 0.920159,0.561094 1.871465,0.513592 2.638408,-0.131745 z m 9.911395,-2.513421 c 1.086379,-1.165494 1.435599,-3.36892 0.882235,-5.566528 -0.324661,-1.289347 -1.750513,-2.815198 -2.629649,-2.814072 -1.714456,0.0022 -2.907496,1.826405 -2.906525,4.444208 6.35e-4,1.774128 0.382425,2.920318 1.29397,3.884908 1.134285,1.200294 2.272876,1.217739 3.359969,0.05148 z m 9.477901,-2.051315 c 1.859831,-1.632951 1.809583,-5.744114 -0.09346,-7.647162 -0.658404,-0.65841 -0.949037,-0.799588 -1.646037,-0.799588 -2.88926,0 -3.814927,5.809894 -1.322736,8.302085 1.048872,1.048871 1.982182,1.092962 3.062236,0.144659 z M 56.320987,66.012405 c 1.504236,-0.985611 2.058193,-4.570334 1.04314,-6.750276 -1.205205,-2.588306 -3.438511,-2.729846 -4.723774,-0.299373 -0.728034,1.376733 -0.693348,3.945689 0.07407,5.485691 0.871937,1.749753 2.346871,2.389344 3.606567,1.563958 z m 22.081542,6.562487 C 77.295614,72.374232 74.883492,71.03147 74.038221,70.145402 73.558726,69.642765 71.229927,66.755016 68.863113,63.728183 56.44471,47.846741 56.972799,48.560748 57.359226,48.174321 c 0.155235,-0.155234 4.645633,-0.241285 14.286099,-0.273765 l 14.059704,-0.04737 1.164166,0.479289 c 1.957189,0.805779 3.025252,1.78428 5.752814,5.270415 1.43441,1.83334 5.15758,6.576034 8.273711,10.53932 5.31076,6.754548 6.14336,7.955684 5.77218,8.327081 -0.16142,0.161514 -27.395652,0.263264 -28.265371,0.105601 z m 21.001516,-3.474106 c 0.44488,-0.238093 0.682405,-1.053748 0.50856,-1.746408 -0.19946,-0.794692 -1.747545,-2.185666 -3.262706,-2.931577 -1.043083,-0.513507 -1.749882,-0.705407 -2.821074,-0.765935 -1.306688,-0.07384 -1.475842,-0.03421 -1.971961,0.461906 -0.665524,0.665524 -0.678561,1.079085 -0.06534,2.072517 0.597323,0.967665 1.431923,1.661073 2.878652,2.391659 1.820035,0.919103 3.616837,1.115655 4.733869,0.517838 z m -16.885194,-0.18252 c 0.670083,-0.254766 1.063891,-1.057821 0.879337,-1.793144 -0.386541,-1.540102 -3.545831,-3.617237 -5.865975,-3.856696 -2.825367,-0.291604 -3.60607,1.668941 -1.442822,3.623304 1.885241,1.703203 4.834706,2.63286 6.42946,2.026536 z m 6.141413,-12.489505 c 0.301745,-0.114723 0.628095,-0.423405 0.72522,-0.685962 0.622719,-1.683368 -2.204326,-4.173074 -5.515038,-4.856952 -1.927593,-0.398173 -3.281555,0.457966 -2.90307,1.83567 0.316372,1.151613 1.390005,2.174765 3.218422,3.067097 1.817672,0.88709 3.276147,1.095749 4.474466,0.640147 z M 72.211279,56.00467 c 1.645088,-1.003031 0.344342,-3.291645 -2.686223,-4.726304 -2.177813,-1.030969 -4.343466,-1.049911 -5.002723,-0.04376 -0.686479,1.047697 0.308898,2.627755 2.447432,3.885046 2.174471,1.278418 4.071063,1.598653 5.241514,0.885014 z m -41.39451,9.166271 c -0.583711,-0.233519 -0.677903,-1.106578 -0.345165,-3.199367 0.386201,-2.429048 0.437771,-2.780626 0.611683,-4.170057 0.07286,-0.582083 0.269674,-1.820333 0.437371,-2.751666 0.167695,-0.931334 0.98465,-6.170083 1.815452,-11.641666 1.06744,-7.030044 1.630462,-10.183972 1.91932,-10.75162 0.566106,-1.11248 1.803141,-2.434442 2.704329,-2.889993 0.957665,-0.4841 25.85569,-8.265885 26.446917,-8.265885 0.241686,0 0.596058,0.239048 0.787496,0.531218 0.330305,0.504113 0.260345,1.10625 -1.371065,11.800415 -0.945521,6.198059 -1.71908,11.331291 -1.719021,11.407182 6.1e-5,0.07589 -1.261952,0.173037 -2.804473,0.215883 -2.67999,0.07444 -2.870147,0.109753 -4.280425,0.794888 -2.328132,1.131041 -3.479482,2.443186 -5.072517,5.78093 -0.736842,1.543839 -1.999656,4.177067 -2.806252,5.851617 l -1.46654,3.044637 -6.971926,2.184806 c -6.891525,2.159611 -7.340127,2.276733 -7.885184,2.058678 z m 9.366984,-6.832259 c 0.916483,-0.566415 2.103355,-1.882613 2.631938,-2.918722 0.588003,-1.152582 0.733698,-2.17468 0.456647,-3.20356 -0.804028,-2.985941 -5.052326,-1.732373 -6.916096,2.040772 -0.458019,0.927246 -0.53409,1.324519 -0.457187,2.387659 0.103767,1.434583 0.356095,1.79303 1.551491,2.203987 0.907877,0.312113 1.616905,0.179777 2.733207,-0.510136 z M 57.247339,35.719464 c 2.487399,-1.580392 3.824622,-4.509351 2.981751,-6.531011 -0.375038,-0.899536 -1.467572,-1.41817 -2.58852,-1.228786 -2.607243,0.440491 -5.283535,4.267166 -4.644395,6.640751 0.477514,1.773354 2.417566,2.28404 4.251164,1.119046 z M 15.103335,56.945592 C 9.1138512,52.796407 3.9394642,49.148472 3.6046968,48.839069 2.6128861,47.922404 1.7795599,45.942684 1.779365,44.502654 1.7792732,43.824027 2.3059597,39.823528 2.9497794,35.612655 3.5935991,31.40178 4.5992088,24.828857 5.1844678,21.006158 c 0.5852589,-3.822698 1.1505033,-7.1776 1.2560987,-7.455337 0.270778,-0.7122 1.1030782,-0.86679 1.9507904,-0.362337 0.3796875,0.225944 5.4528411,3.71012 11.2736741,7.742614 7.757363,5.374064 10.765271,7.573499 11.264694,8.236949 0.846974,1.125143 1.329472,2.484822 1.329472,3.746442 0,0.815488 -1.721874,12.598403 -3.172847,21.712028 -0.222415,1.397 -0.608468,3.921125 -0.857892,5.609166 -0.539538,3.651441 -0.711504,4.104469 -1.590761,4.190691 -0.547614,0.0537 -2.279911,-1.069806 -11.534362,-7.480782 z m -4.646687,-9.588126 c 1.263382,-1.263384 1.315943,-3.536645 0.134538,-5.818812 -2.0578907,-3.975313 -5.7875758,-3.422004 -5.6793191,0.842541 0.096303,3.79367 3.5909999,6.930051 5.5447811,4.976271 z m 8.609981,-4.936164 c 0.693364,-0.651381 0.984261,-1.741053 0.864171,-3.237111 -0.189829,-2.364867 -1.495716,-4.438603 -3.20656,-5.09198 -1.292022,-0.493427 -2.300738,-0.06933 -2.882176,1.211758 -1.698106,3.741457 2.594045,9.588579 5.224565,7.117333 z m 8.535019,-5.012169 c 1.262767,-1.262767 1.316166,-3.542425 0.136049,-5.807891 -1.192594,-2.289414 -3.159885,-3.280217 -4.549024,-2.291065 -0.831096,0.591792 -1.153858,1.633196 -1.053986,3.400714 0.212675,3.763799 3.541042,6.624159 5.466961,4.698242 z M 33.68466,26.995335 C 33.246288,26.886583 32.508068,26.603968 32.044169,26.367305 30.856268,25.761283 10.488258,11.632597 9.7166981,10.879399 9.1340201,10.310588 9.1114393,10.237299 9.4426491,9.989936 9.6411721,9.84167 15.546672,7.9179972 22.565982,5.715108 35.299198,1.719009 35.332718,1.709894 37.233364,1.726613 c 1.37128,0.01206 2.202431,0.134512 2.966618,0.437056 0.94346,0.373518 21.927425,14.714876 23.121297,15.802103 0.614898,0.559972 0.600116,0.709274 -0.105833,1.06892 -0.320146,0.163098 -6.154208,2.041384 -12.964583,4.173969 -11.180322,3.500979 -12.546901,3.882621 -14.075833,3.930916 -0.931333,0.02942 -2.052,-0.03549 -2.49037,-0.144242 z M 39.078875,15.98804 c 1.120696,-0.311249 2.072034,-1.169779 2.06282,-1.861585 -0.02504,-1.880367 -2.560872,-3.2962 -5.919165,-3.304846 -1.513203,-0.0039 -1.940172,0.07572 -2.686321,0.500881 -1.025006,0.584063 -1.452801,1.380288 -1.15454,2.148861 0.752215,1.938339 4.898418,3.293988 7.697206,2.516689 z"
       id="path1039-7" />
  </g>
</svg>
